<svg width="96" height="87" viewBox="0 0 96 87" fill="none" xmlns="http://www.w3.org/2000/svg">
<path d="M9.74 50.2371C10.5533 50.4105 11.2067 50.8171 11.7 51.4571C12.1933 52.0838 12.44 52.8038 12.44 53.6171C12.44 54.7905 12.0267 55.7238 11.2 56.4171C10.3867 57.0971 9.24667 57.4371 7.78 57.4371H1.24V43.3971H7.56C8.98667 43.3971 10.1 43.7238 10.9 44.3771C11.7133 45.0305 12.12 45.9171 12.12 47.0371C12.12 47.8638 11.9 48.5505 11.46 49.0971C11.0333 49.6438 10.46 50.0238 9.74 50.2371ZM4.66 49.0771H6.9C7.46 49.0771 7.88667 48.9571 8.18 48.7171C8.48667 48.4638 8.64 48.0971 8.64 47.6171C8.64 47.1371 8.48667 46.7705 8.18 46.5171C7.88667 46.2638 7.46 46.1371 6.9 46.1371H4.66V49.0771ZM7.18 54.6771C7.75333 54.6771 8.19333 54.5505 8.5 54.2971C8.82 54.0305 8.98 53.6505 8.98 53.1571C8.98 52.6638 8.81333 52.2771 8.48 51.9971C8.16 51.7171 7.71333 51.5771 7.14 51.5771H4.66V54.6771H7.18ZM17.8436 48.1371C18.2436 47.5238 18.7436 47.0438 19.3436 46.6971C19.9436 46.3371 20.6103 46.1571 21.3436 46.1571V49.7771H20.4036C19.5503 49.7771 18.9103 49.9638 18.4836 50.3371C18.0569 50.6971 17.8436 51.3371 17.8436 52.2571V57.4371H14.4236V46.2771H17.8436V48.1371ZM22.2983 51.8371C22.2983 50.6905 22.5116 49.6838 22.9383 48.8171C23.3783 47.9505 23.9716 47.2838 24.7183 46.8171C25.4649 46.3505 26.2983 46.1171 27.2183 46.1171C28.0049 46.1171 28.6916 46.2771 29.2783 46.5971C29.8783 46.9171 30.3383 47.3371 30.6583 47.8571V46.2771H34.0783V57.4371H30.6583V55.8571C30.3249 56.3771 29.8583 56.7971 29.2583 57.1171C28.6716 57.4371 27.9849 57.5971 27.1983 57.5971C26.2916 57.5971 25.4649 57.3638 24.7183 56.8971C23.9716 56.4171 23.3783 55.7438 22.9383 54.8771C22.5116 53.9971 22.2983 52.9838 22.2983 51.8371ZM30.6583 51.8571C30.6583 51.0038 30.4183 50.3305 29.9383 49.8371C29.4716 49.3438 28.8983 49.0971 28.2183 49.0971C27.5383 49.0971 26.9583 49.3438 26.4783 49.8371C26.0116 50.3171 25.7783 50.9838 25.7783 51.8371C25.7783 52.6905 26.0116 53.3705 26.4783 53.8771C26.9583 54.3705 27.5383 54.6171 28.2183 54.6171C28.8983 54.6171 29.4716 54.3705 29.9383 53.8771C30.4183 53.3838 30.6583 52.7105 30.6583 51.8571ZM43.3525 46.1571C44.6592 46.1571 45.6992 46.5838 46.4725 47.4371C47.2592 48.2771 47.6525 49.4371 47.6525 50.9171V57.4371H44.2525V51.3771C44.2525 50.6305 44.0592 50.0505 43.6725 49.6371C43.2858 49.2238 42.7658 49.0171 42.1125 49.0171C41.4592 49.0171 40.9392 49.2238 40.5525 49.6371C40.1658 50.0505 39.9725 50.6305 39.9725 51.3771V57.4371H36.5525V46.2771H39.9725V47.7571C40.3192 47.2638 40.7858 46.8771 41.3725 46.5971C41.9592 46.3038 42.6192 46.1571 43.3525 46.1571ZM49.3491 51.8371C49.3491 50.6905 49.5624 49.6838 49.9891 48.8171C50.4291 47.9505 51.0224 47.2838 51.7691 46.8171C52.5157 46.3505 53.3491 46.1171 54.2691 46.1171C55.0024 46.1171 55.6691 46.2705 56.2691 46.5771C56.8824 46.8838 57.3624 47.2971 57.7091 47.8171V42.6371H61.1291V57.4371H57.7091V55.8371C57.3891 56.3705 56.9291 56.7971 56.3291 57.1171C55.7424 57.4371 55.0557 57.5971 54.2691 57.5971C53.3491 57.5971 52.5157 57.3638 51.7691 56.8971C51.0224 56.4171 50.4291 55.7438 49.9891 54.8771C49.5624 53.9971 49.3491 52.9838 49.3491 51.8371ZM57.7091 51.8571C57.7091 51.0038 57.4691 50.3305 56.9891 49.8371C56.5224 49.3438 55.9491 49.0971 55.2691 49.0971C54.5891 49.0971 54.0091 49.3438 53.5291 49.8371C53.0624 50.3171 52.8291 50.9838 52.8291 51.8371C52.8291 52.6905 53.0624 53.3705 53.5291 53.8771C54.0091 54.3705 54.5891 54.6171 55.2691 54.6171C55.9491 54.6171 56.5224 54.3705 56.9891 53.8771C57.4691 53.3838 57.7091 52.7105 57.7091 51.8571ZM65.3233 45.1171C64.7233 45.1171 64.2299 44.9438 63.8433 44.5971C63.4699 44.2371 63.2833 43.7971 63.2833 43.2771C63.2833 42.7438 63.4699 42.3038 63.8433 41.9571C64.2299 41.5971 64.7233 41.4171 65.3233 41.4171C65.9099 41.4171 66.3899 41.5971 66.7633 41.9571C67.1499 42.3038 67.3433 42.7438 67.3433 43.2771C67.3433 43.7971 67.1499 44.2371 66.7633 44.5971C66.3899 44.9438 65.9099 45.1171 65.3233 45.1171ZM67.0233 46.2771V57.4371H63.6033V46.2771H67.0233ZM76.3017 46.1571C77.6084 46.1571 78.6484 46.5838 79.4217 47.4371C80.2084 48.2771 80.6017 49.4371 80.6017 50.9171V57.4371H77.2017V51.3771C77.2017 50.6305 77.0084 50.0505 76.6217 49.6371C76.2351 49.2238 75.7151 49.0171 75.0617 49.0171C74.4084 49.0171 73.8884 49.2238 73.5017 49.6371C73.1151 50.0505 72.9217 50.6305 72.9217 51.3771V57.4371H69.5017V46.2771H72.9217V47.7571C73.2684 47.2638 73.7351 46.8771 74.3217 46.5971C74.9084 46.3038 75.5684 46.1571 76.3017 46.1571ZM87.2183 46.1171C88.0049 46.1171 88.6916 46.2771 89.2783 46.5971C89.8783 46.9171 90.3383 47.3371 90.6583 47.8571V46.2771H94.0783V57.4171C94.0783 58.4438 93.8716 59.3705 93.4583 60.1971C93.0583 61.0371 92.4383 61.7038 91.5983 62.1971C90.7716 62.6905 89.7383 62.9371 88.4983 62.9371C86.8449 62.9371 85.5049 62.5438 84.4783 61.7571C83.4516 60.9838 82.8649 59.9305 82.7183 58.5971H86.0983C86.2049 59.0238 86.4583 59.3571 86.8583 59.5971C87.2583 59.8505 87.7516 59.9771 88.3383 59.9771C89.0449 59.9771 89.6049 59.7705 90.0183 59.3571C90.4449 58.9571 90.6583 58.3105 90.6583 57.4171V55.8371C90.3249 56.3571 89.8649 56.7838 89.2783 57.1171C88.6916 57.4371 88.0049 57.5971 87.2183 57.5971C86.2983 57.5971 85.4649 57.3638 84.7183 56.8971C83.9716 56.4171 83.3783 55.7438 82.9383 54.8771C82.5116 53.9971 82.2983 52.9838 82.2983 51.8371C82.2983 50.6905 82.5116 49.6838 82.9383 48.8171C83.3783 47.9505 83.9716 47.2838 84.7183 46.8171C85.4649 46.3505 86.2983 46.1171 87.2183 46.1171ZM90.6583 51.8571C90.6583 51.0038 90.4183 50.3305 89.9383 49.8371C89.4716 49.3438 88.8983 49.0971 88.2183 49.0971C87.5383 49.0971 86.9583 49.3438 86.4783 49.8371C86.0116 50.3171 85.7783 50.9838 85.7783 51.8371C85.7783 52.6905 86.0116 53.3705 86.4783 53.8771C86.9583 54.3705 87.5383 54.6171 88.2183 54.6171C88.8983 54.6171 89.4716 54.3705 89.9383 53.8771C90.4183 53.3838 90.6583 52.7105 90.6583 51.8571ZM6.5 67.3971C7.98 67.3971 9.27333 67.6905 10.38 68.2771C11.4867 68.8638 12.34 69.6905 12.94 70.7571C13.5533 71.8105 13.86 73.0305 13.86 74.4171C13.86 75.7905 13.5533 77.0105 12.94 78.0771C12.34 79.1438 11.48 79.9705 10.36 80.5571C9.25333 81.1438 7.96667 81.4371 6.5 81.4371H1.24V67.3971H6.5ZM6.28 78.4771C7.57333 78.4771 8.58 78.1238 9.3 77.4171C10.02 76.7105 10.38 75.7105 10.38 74.4171C10.38 73.1238 10.02 72.1171 9.3 71.3971C8.58 70.6771 7.57333 70.3171 6.28 70.3171H4.66V78.4771H6.28ZM26.2912 75.6771C26.2912 75.9971 26.2713 76.3305 26.2313 76.6771H18.4913C18.5446 77.3705 18.7646 77.9038 19.1513 78.2771C19.5513 78.6371 20.0379 78.8171 20.6113 78.8171C21.4646 78.8171 22.0579 78.4571 22.3913 77.7371H26.0313C25.8446 78.4705 25.5046 79.1305 25.0113 79.7171C24.5313 80.3038 23.9246 80.7638 23.1913 81.0971C22.4579 81.4305 21.6379 81.5971 20.7313 81.5971C19.6379 81.5971 18.6646 81.3638 17.8113 80.8971C16.9579 80.4305 16.2913 79.7638 15.8113 78.8971C15.3313 78.0305 15.0913 77.0171 15.0913 75.8571C15.0913 74.6971 15.3246 73.6838 15.7913 72.8171C16.2713 71.9505 16.9379 71.2838 17.7913 70.8171C18.6446 70.3505 19.6246 70.1171 20.7313 70.1171C21.8113 70.1171 22.7713 70.3438 23.6113 70.7971C24.4513 71.2505 25.1046 71.8971 25.5713 72.7371C26.0513 73.5771 26.2912 74.5571 26.2912 75.6771ZM22.7913 74.7771C22.7913 74.1905 22.5913 73.7238 22.1913 73.3771C21.7913 73.0305 21.2913 72.8571 20.6913 72.8571C20.1179 72.8571 19.6313 73.0238 19.2313 73.3571C18.8446 73.6905 18.6046 74.1638 18.5113 74.7771H22.7913ZM32.6355 81.5971C31.6621 81.5971 30.7955 81.4305 30.0355 81.0971C29.2755 80.7638 28.6755 80.3105 28.2355 79.7371C27.7955 79.1505 27.5488 78.4971 27.4955 77.7771H30.8755C30.9155 78.1638 31.0955 78.4771 31.4155 78.7171C31.7355 78.9571 32.1288 79.0771 32.5955 79.0771C33.0221 79.0771 33.3488 78.9971 33.5755 78.8371C33.8155 78.6638 33.9355 78.4438 33.9355 78.1771C33.9355 77.8571 33.7688 77.6238 33.4355 77.4771C33.1021 77.3171 32.5621 77.1438 31.8155 76.9571C31.0155 76.7705 30.3488 76.5771 29.8155 76.3771C29.2821 76.1638 28.8221 75.8371 28.4355 75.3971C28.0488 74.9438 27.8555 74.3371 27.8555 73.5771C27.8555 72.9371 28.0288 72.3571 28.3755 71.8371C28.7355 71.3038 29.2555 70.8838 29.9355 70.5771C30.6288 70.2705 31.4488 70.1171 32.3955 70.1171C33.7955 70.1171 34.8955 70.4638 35.6955 71.1571C36.5088 71.8505 36.9755 72.7705 37.0955 73.9171H33.9355C33.8821 73.5305 33.7088 73.2238 33.4155 72.9971C33.1355 72.7705 32.7621 72.6571 32.2955 72.6571C31.8955 72.6571 31.5888 72.7371 31.3755 72.8971C31.1621 73.0438 31.0555 73.2505 31.0555 73.5171C31.0555 73.8371 31.2221 74.0771 31.5555 74.2371C31.9021 74.3971 32.4355 74.5571 33.1555 74.7171C33.9821 74.9305 34.6555 75.1438 35.1755 75.3571C35.6955 75.5571 36.1488 75.8905 36.5355 76.3571C36.9355 76.8105 37.1421 77.4238 37.1555 78.1971C37.1555 78.8505 36.9688 79.4371 36.5955 79.9571C36.2355 80.4638 35.7088 80.8638 35.0155 81.1571C34.3355 81.4505 33.5421 81.5971 32.6355 81.5971ZM40.9678 69.1171C40.3678 69.1171 39.8745 68.9438 39.4878 68.5971C39.1145 68.2371 38.9278 67.7971 38.9278 67.2771C38.9278 66.7438 39.1145 66.3038 39.4878 65.9571C39.8745 65.5971 40.3678 65.4171 40.9678 65.4171C41.5545 65.4171 42.0345 65.5971 42.4078 65.9571C42.7945 66.3038 42.9878 66.7438 42.9878 67.2771C42.9878 67.7971 42.7945 68.2371 42.4078 68.5971C42.0345 68.9438 41.5545 69.1171 40.9678 69.1171ZM42.6678 70.2771V81.4371H39.2478V70.2771H42.6678ZM49.3863 70.1171C50.1729 70.1171 50.8596 70.2771 51.4463 70.5971C52.0463 70.9171 52.5063 71.3371 52.8263 71.8571V70.2771H56.2463V81.4171C56.2463 82.4438 56.0396 83.3705 55.6263 84.1971C55.2263 85.0371 54.6063 85.7038 53.7663 86.1971C52.9396 86.6905 51.9063 86.9371 50.6663 86.9371C49.0129 86.9371 47.6729 86.5438 46.6463 85.7571C45.6196 84.9838 45.0329 83.9305 44.8863 82.5971H48.2663C48.3729 83.0238 48.6263 83.3571 49.0263 83.5971C49.4263 83.8505 49.9196 83.9771 50.5063 83.9771C51.2129 83.9771 51.7729 83.7705 52.1863 83.3571C52.6129 82.9571 52.8263 82.3105 52.8263 81.4171V79.8371C52.4929 80.3571 52.0329 80.7838 51.4463 81.1171C50.8596 81.4371 50.1729 81.5971 49.3863 81.5971C48.4663 81.5971 47.6329 81.3638 46.8863 80.8971C46.1396 80.4171 45.5463 79.7438 45.1063 78.8771C44.6796 77.9971 44.4663 76.9838 44.4663 75.8371C44.4663 74.6905 44.6796 73.6838 45.1063 72.8171C45.5463 71.9505 46.1396 71.2838 46.8863 70.8171C47.6329 70.3505 48.4663 70.1171 49.3863 70.1171ZM52.8263 75.8571C52.8263 75.0038 52.5863 74.3305 52.1063 73.8371C51.6396 73.3438 51.0663 73.0971 50.3863 73.0971C49.7063 73.0971 49.1263 73.3438 48.6463 73.8371C48.1796 74.3171 47.9463 74.9838 47.9463 75.8371C47.9463 76.6905 48.1796 77.3705 48.6463 77.8771C49.1263 78.3705 49.7063 78.6171 50.3863 78.6171C51.0663 78.6171 51.6396 78.3705 52.1063 77.8771C52.5863 77.3838 52.8263 76.7105 52.8263 75.8571ZM65.5205 70.1571C66.8271 70.1571 67.8671 70.5838 68.6405 71.4371C69.4271 72.2771 69.8205 73.4371 69.8205 74.9171V81.4371H66.4205V75.3771C66.4205 74.6305 66.2271 74.0505 65.8405 73.6371C65.4538 73.2238 64.9338 73.0171 64.2805 73.0171C63.6271 73.0171 63.1071 73.2238 62.7205 73.6371C62.3338 74.0505 62.1405 74.6305 62.1405 75.3771V81.4371H58.7205V70.2771H62.1405V71.7571C62.4871 71.2638 62.9538 70.8771 63.5405 70.5971C64.1271 70.3038 64.7871 70.1571 65.5205 70.1571ZM82.717 75.6771C82.717 75.9971 82.697 76.3305 82.657 76.6771H74.917C74.9704 77.3705 75.1904 77.9038 75.577 78.2771C75.977 78.6371 76.4637 78.8171 77.037 78.8171C77.8904 78.8171 78.4837 78.4571 78.817 77.7371H82.457C82.2704 78.4705 81.9304 79.1305 81.437 79.7171C80.957 80.3038 80.3504 80.7638 79.617 81.0971C78.8837 81.4305 78.0637 81.5971 77.157 81.5971C76.0637 81.5971 75.0904 81.3638 74.237 80.8971C73.3837 80.4305 72.717 79.7638 72.237 78.8971C71.757 78.0305 71.517 77.0171 71.517 75.8571C71.517 74.6971 71.7504 73.6838 72.217 72.8171C72.697 71.9505 73.3637 71.2838 74.217 70.8171C75.0704 70.3505 76.0504 70.1171 77.157 70.1171C78.237 70.1171 79.197 70.3438 80.037 70.7971C80.877 71.2505 81.5304 71.8971 81.997 72.7371C82.477 73.5771 82.717 74.5571 82.717 75.6771ZM79.217 74.7771C79.217 74.1905 79.017 73.7238 78.617 73.3771C78.217 73.0305 77.717 72.8571 77.117 72.8571C76.5437 72.8571 76.057 73.0238 75.657 73.3571C75.2704 73.6905 75.0304 74.1638 74.937 74.7771H79.217ZM87.9413 72.1371C88.3413 71.5238 88.8413 71.0438 89.4413 70.6971C90.0413 70.3371 90.7079 70.1571 91.4413 70.1571V73.7771H90.5013C89.6479 73.7771 89.0079 73.9638 88.5813 74.3371C88.1546 74.6971 87.9413 75.3371 87.9413 76.2571V81.4371H84.5213V70.2771H87.9413V72.1371Z" fill="#222A36"/>
<path d="M22.105 4.36098C22.7563 3.57018 22.1425 2.43738 21.06 2.43738H12.665C12.1963 2.43738 11.7625 2.66778 11.5288 3.03978L5.17629 13.187C4.67504 13.9862 5.30504 14.9834 6.31129 14.9834H10.5975L6.56004 24.6614C5.97629 25.8854 7.55379 27.005 8.61379 26.1194L25 11.2346H16.4388L22.105 4.36098V4.36098Z" stroke="#222A36" stroke-width="2" stroke-linecap="round" stroke-linejoin="round"/>
</svg>
