<svg width="96" height="88" viewBox="0 0 96 88" fill="none" xmlns="http://www.w3.org/2000/svg">
<path d="M4.6 44.2786V52.6786C4.6 53.5186 4.80667 54.1653 5.22 54.6186C5.63333 55.0719 6.24 55.2986 7.04 55.2986C7.84 55.2986 8.45333 55.0719 8.88 54.6186C9.30667 54.1653 9.52 53.5186 9.52 52.6786V44.2786H12.94V52.6586C12.94 53.9119 12.6733 54.9719 12.14 55.8386C11.6067 56.7053 10.8867 57.3586 9.98 57.7986C9.08667 58.2386 8.08667 58.4586 6.98 58.4586C5.87333 58.4586 4.88 58.2453 4 57.8186C3.13333 57.3786 2.44667 56.7253 1.94 55.8586C1.43333 54.9786 1.18 53.9119 1.18 52.6586V44.2786H4.6ZM18.7616 44.2786V58.3186H15.3416V44.2786H18.7616ZM28.86 39.3186L23.5 62.0586H20.2L25.56 39.3186H28.86ZM33.6625 44.2786V52.6786C33.6625 53.5186 33.8692 54.1653 34.2825 54.6186C34.6958 55.0719 35.3025 55.2986 36.1025 55.2986C36.9025 55.2986 37.5158 55.0719 37.9425 54.6186C38.3692 54.1653 38.5825 53.5186 38.5825 52.6786V44.2786H42.0025V52.6586C42.0025 53.9119 41.7358 54.9719 41.2025 55.8386C40.6692 56.7053 39.9492 57.3586 39.0425 57.7986C38.1492 58.2386 37.1492 58.4586 36.0425 58.4586C34.9358 58.4586 33.9425 58.2453 33.0625 57.8186C32.1958 57.3786 31.5092 56.7253 31.0025 55.8586C30.4958 54.9786 30.2425 53.9119 30.2425 52.6586V44.2786H33.6625ZM53.0041 58.3186L50.1441 54.0186L47.6241 58.3186H43.7441L48.2441 51.1786L43.6441 44.2786H47.6241L50.4441 48.5186L52.9241 44.2786H56.8041L52.3441 51.3586L56.9841 58.3186H53.0041ZM6.5 68.2786C7.98 68.2786 9.27333 68.5719 10.38 69.1586C11.4867 69.7453 12.34 70.5719 12.94 71.6386C13.5533 72.6919 13.86 73.9119 13.86 75.2986C13.86 76.6719 13.5533 77.8919 12.94 78.9586C12.34 80.0253 11.48 80.8519 10.36 81.4386C9.25333 82.0253 7.96667 82.3186 6.5 82.3186H1.24V68.2786H6.5ZM6.28 79.3586C7.57333 79.3586 8.58 79.0053 9.3 78.2986C10.02 77.5919 10.38 76.5919 10.38 75.2986C10.38 74.0053 10.02 72.9986 9.3 72.2786C8.58 71.5586 7.57333 71.1986 6.28 71.1986H4.66V79.3586H6.28ZM26.2912 76.5586C26.2912 76.8786 26.2713 77.2119 26.2313 77.5586H18.4913C18.5446 78.2519 18.7646 78.7853 19.1513 79.1586C19.5513 79.5186 20.0379 79.6986 20.6113 79.6986C21.4646 79.6986 22.0579 79.3386 22.3913 78.6186H26.0313C25.8446 79.3519 25.5046 80.0119 25.0113 80.5986C24.5313 81.1853 23.9246 81.6453 23.1913 81.9786C22.4579 82.3119 21.6379 82.4786 20.7313 82.4786C19.6379 82.4786 18.6646 82.2453 17.8113 81.7786C16.9579 81.3119 16.2913 80.6453 15.8113 79.7786C15.3313 78.9119 15.0913 77.8986 15.0913 76.7386C15.0913 75.5786 15.3246 74.5653 15.7913 73.6986C16.2713 72.8319 16.9379 72.1653 17.7913 71.6986C18.6446 71.2319 19.6246 70.9986 20.7313 70.9986C21.8113 70.9986 22.7713 71.2253 23.6113 71.6786C24.4513 72.1319 25.1046 72.7786 25.5713 73.6186C26.0513 74.4586 26.2912 75.4386 26.2912 76.5586ZM22.7913 75.6586C22.7913 75.0719 22.5913 74.6053 22.1913 74.2586C21.7913 73.9119 21.2913 73.7386 20.6913 73.7386C20.1179 73.7386 19.6313 73.9053 19.2313 74.2386C18.8446 74.5719 18.6046 75.0453 18.5113 75.6586H22.7913ZM32.6355 82.4786C31.6621 82.4786 30.7955 82.3119 30.0355 81.9786C29.2755 81.6453 28.6755 81.1919 28.2355 80.6186C27.7955 80.0319 27.5488 79.3786 27.4955 78.6586H30.8755C30.9155 79.0453 31.0955 79.3586 31.4155 79.5986C31.7355 79.8386 32.1288 79.9586 32.5955 79.9586C33.0221 79.9586 33.3488 79.8786 33.5755 79.7186C33.8155 79.5453 33.9355 79.3253 33.9355 79.0586C33.9355 78.7386 33.7688 78.5053 33.4355 78.3586C33.1021 78.1986 32.5621 78.0253 31.8155 77.8386C31.0155 77.6519 30.3488 77.4586 29.8155 77.2586C29.2821 77.0453 28.8221 76.7186 28.4355 76.2786C28.0488 75.8253 27.8555 75.2186 27.8555 74.4586C27.8555 73.8186 28.0288 73.2386 28.3755 72.7186C28.7355 72.1853 29.2555 71.7653 29.9355 71.4586C30.6288 71.1519 31.4488 70.9986 32.3955 70.9986C33.7955 70.9986 34.8955 71.3453 35.6955 72.0386C36.5088 72.7319 36.9755 73.6519 37.0955 74.7986H33.9355C33.8821 74.4119 33.7088 74.1053 33.4155 73.8786C33.1355 73.6519 32.7621 73.5386 32.2955 73.5386C31.8955 73.5386 31.5888 73.6186 31.3755 73.7786C31.1621 73.9253 31.0555 74.1319 31.0555 74.3986C31.0555 74.7186 31.2221 74.9586 31.5555 75.1186C31.9021 75.2786 32.4355 75.4386 33.1555 75.5986C33.9821 75.8119 34.6555 76.0253 35.1755 76.2386C35.6955 76.4386 36.1488 76.7719 36.5355 77.2386C36.9355 77.6919 37.1421 78.3053 37.1555 79.0786C37.1555 79.7319 36.9688 80.3186 36.5955 80.8386C36.2355 81.3453 35.7088 81.7453 35.0155 82.0386C34.3355 82.3319 33.5421 82.4786 32.6355 82.4786ZM40.9678 69.9986C40.3678 69.9986 39.8745 69.8253 39.4878 69.4786C39.1145 69.1186 38.9278 68.6786 38.9278 68.1586C38.9278 67.6253 39.1145 67.1853 39.4878 66.8386C39.8745 66.4786 40.3678 66.2986 40.9678 66.2986C41.5545 66.2986 42.0345 66.4786 42.4078 66.8386C42.7945 67.1853 42.9878 67.6253 42.9878 68.1586C42.9878 68.6786 42.7945 69.1186 42.4078 69.4786C42.0345 69.8253 41.5545 69.9986 40.9678 69.9986ZM42.6678 71.1586V82.3186H39.2478V71.1586H42.6678ZM49.3863 70.9986C50.1729 70.9986 50.8596 71.1586 51.4463 71.4786C52.0463 71.7986 52.5063 72.2186 52.8263 72.7386V71.1586H56.2463V82.2986C56.2463 83.3253 56.0396 84.2519 55.6263 85.0786C55.2263 85.9186 54.6063 86.5853 53.7663 87.0786C52.9396 87.5719 51.9063 87.8186 50.6663 87.8186C49.0129 87.8186 47.6729 87.4253 46.6463 86.6386C45.6196 85.8653 45.0329 84.8119 44.8863 83.4786H48.2663C48.3729 83.9053 48.6263 84.2386 49.0263 84.4786C49.4263 84.7319 49.9196 84.8586 50.5063 84.8586C51.2129 84.8586 51.7729 84.6519 52.1863 84.2386C52.6129 83.8386 52.8263 83.1919 52.8263 82.2986V80.7186C52.4929 81.2386 52.0329 81.6653 51.4463 81.9986C50.8596 82.3186 50.1729 82.4786 49.3863 82.4786C48.4663 82.4786 47.6329 82.2453 46.8863 81.7786C46.1396 81.2986 45.5463 80.6253 45.1063 79.7586C44.6796 78.8786 44.4663 77.8653 44.4663 76.7186C44.4663 75.5719 44.6796 74.5653 45.1063 73.6986C45.5463 72.8319 46.1396 72.1653 46.8863 71.6986C47.6329 71.2319 48.4663 70.9986 49.3863 70.9986ZM52.8263 76.7386C52.8263 75.8853 52.5863 75.2119 52.1063 74.7186C51.6396 74.2253 51.0663 73.9786 50.3863 73.9786C49.7063 73.9786 49.1263 74.2253 48.6463 74.7186C48.1796 75.1986 47.9463 75.8653 47.9463 76.7186C47.9463 77.5719 48.1796 78.2519 48.6463 78.7586C49.1263 79.2519 49.7063 79.4986 50.3863 79.4986C51.0663 79.4986 51.6396 79.2519 52.1063 78.7586C52.5863 78.2653 52.8263 77.5919 52.8263 76.7386ZM65.5205 71.0386C66.8271 71.0386 67.8671 71.4653 68.6405 72.3186C69.4271 73.1586 69.8205 74.3186 69.8205 75.7986V82.3186H66.4205V76.2586C66.4205 75.5119 66.2271 74.9319 65.8405 74.5186C65.4538 74.1053 64.9338 73.8986 64.2805 73.8986C63.6271 73.8986 63.1071 74.1053 62.7205 74.5186C62.3338 74.9319 62.1405 75.5119 62.1405 76.2586V82.3186H58.7205V71.1586H62.1405V72.6386C62.4871 72.1453 62.9538 71.7586 63.5405 71.4786C64.1271 71.1853 64.7871 71.0386 65.5205 71.0386ZM82.717 76.5586C82.717 76.8786 82.697 77.2119 82.657 77.5586H74.917C74.9704 78.2519 75.1904 78.7853 75.577 79.1586C75.977 79.5186 76.4637 79.6986 77.037 79.6986C77.8904 79.6986 78.4837 79.3386 78.817 78.6186H82.457C82.2704 79.3519 81.9304 80.0119 81.437 80.5986C80.957 81.1853 80.3504 81.6453 79.617 81.9786C78.8837 82.3119 78.0637 82.4786 77.157 82.4786C76.0637 82.4786 75.0904 82.2453 74.237 81.7786C73.3837 81.3119 72.717 80.6453 72.237 79.7786C71.757 78.9119 71.517 77.8986 71.517 76.7386C71.517 75.5786 71.7504 74.5653 72.217 73.6986C72.697 72.8319 73.3637 72.1653 74.217 71.6986C75.0704 71.2319 76.0504 70.9986 77.157 70.9986C78.237 70.9986 79.197 71.2253 80.037 71.6786C80.877 72.1319 81.5304 72.7786 81.997 73.6186C82.477 74.4586 82.717 75.4386 82.717 76.5586ZM79.217 75.6586C79.217 75.0719 79.017 74.6053 78.617 74.2586C78.217 73.9119 77.717 73.7386 77.117 73.7386C76.5437 73.7386 76.057 73.9053 75.657 74.2386C75.2704 74.5719 75.0304 75.0453 74.937 75.6586H79.217ZM87.9413 73.0186C88.3413 72.4053 88.8413 71.9253 89.4413 71.5786C90.0413 71.2186 90.7079 71.0386 91.4413 71.0386V74.6586H90.5013C89.6479 74.6586 89.0079 74.8453 88.5813 75.2186C88.1546 75.5786 87.9413 76.2186 87.9413 77.1386V82.3186H84.5213V71.1586H87.9413V73.0186Z" fill="#222A36"/>
<path fill-rule="evenodd" clip-rule="evenodd" d="M24.33 21.0154C25.896 15.4052 22.188 9.61062 16.0965 8.0439C9.2175 6.2727 -0.546002 10.8721 1.626 16.7717C2.346 18.7229 3.732 19.1794 6.3465 19.2154L6.51 19.2183C7.8915 19.2341 8.28 19.3205 8.397 19.502C8.5875 19.8015 8.5905 20.2781 8.376 21.59C8.274 22.2092 8.241 22.4252 8.202 22.7636C7.9635 24.8242 8.3265 26.4313 9.732 27.8857C14.124 32.426 22.5615 27.3485 24.33 21.0154ZM4.455 15.8098C3.3615 12.8434 10.359 9.54726 15.3195 10.8231C19.845 11.9881 22.5585 16.2289 21.432 20.2681C20.175 24.7724 14.259 28.3321 11.931 25.9244C11.211 25.1813 11.0325 24.3865 11.184 23.0804C11.2155 22.801 11.2455 22.6081 11.34 22.0349C11.6685 20.0233 11.664 19.1045 10.953 17.9943C10.062 16.6018 9.003 16.3671 6.5475 16.3369L6.3885 16.334C4.9425 16.3153 4.599 16.2015 4.4535 15.8098H4.455Z" fill="#222A36"/>
<path d="M9 15.3188C8.50272 15.3188 8.02581 15.1291 7.67417 14.7915C7.32254 14.454 7.125 13.9961 7.125 13.5188C7.125 13.0414 7.32254 12.5835 7.67417 12.246C8.02581 11.9084 8.50272 11.7188 9 11.7188C9.49728 11.7188 9.97419 11.9084 10.3258 12.246C10.6775 12.5835 10.875 13.0414 10.875 13.5188C10.875 13.9961 10.6775 14.454 10.3258 14.7915C9.97419 15.1291 9.49728 15.3188 9 15.3188Z" fill="#222A36"/>
<path d="M14.625 15.3188C14.1277 15.3188 13.6508 15.1291 13.2992 14.7915C12.9475 14.454 12.75 13.9961 12.75 13.5188C12.75 13.0414 12.9475 12.5835 13.2992 12.246C13.6508 11.9084 14.1277 11.7188 14.625 11.7188C15.1223 11.7188 15.5992 11.9084 15.9508 12.246C16.3025 12.5835 16.5 13.0414 16.5 13.5188C16.5 13.9961 16.3025 14.454 15.9508 14.7915C15.5992 15.1291 15.1223 15.3188 14.625 15.3188Z" fill="#222A36"/>
<path d="M18.375 19.6387C17.8777 19.6387 17.4008 19.4491 17.0492 19.1115C16.6975 18.7739 16.5 18.3161 16.5 17.8387C16.5 17.3613 16.6975 16.9035 17.0492 16.5659C17.4008 16.2283 17.8777 16.0387 18.375 16.0387C18.8723 16.0387 19.3492 16.2283 19.7008 16.5659C20.0525 16.9035 20.25 17.3613 20.25 17.8387C20.25 18.3161 20.0525 18.7739 19.7008 19.1115C19.3492 19.4491 18.8723 19.6387 18.375 19.6387Z" fill="#222A36"/>
<path d="M16.125 24.6787C15.6277 24.6787 15.1508 24.4891 14.7992 24.1515C14.4475 23.814 14.25 23.3561 14.25 22.8787C14.25 22.4013 14.4475 21.9435 14.7992 21.6059C15.1508 21.2684 15.6277 21.0787 16.125 21.0787C16.6223 21.0787 17.0992 21.2684 17.4508 21.6059C17.8025 21.9435 18 22.4013 18 22.8787C18 23.3561 17.8025 23.814 17.4508 24.1515C17.0992 24.4891 16.6223 24.6787 16.125 24.6787Z" fill="#222A36"/>
<path d="M21.555 6.1099C21.7329 6.01842 21.9281 5.96234 22.1291 5.94499C22.33 5.92765 22.5326 5.94941 22.7246 6.00897C22.9166 6.06852 23.0941 6.16466 23.2465 6.29161C23.3989 6.41856 23.523 6.57373 23.6115 6.74782L29.751 18.8438C29.8535 19.0612 29.8659 19.308 29.7857 19.5339C29.7055 19.7598 29.5387 19.9479 29.3192 20.0599C29.0997 20.172 28.844 20.1996 28.6041 20.1371C28.3641 20.0747 28.158 19.9268 28.0275 19.7237L20.9655 8.10286C20.864 7.93569 20.7987 7.75056 20.7735 7.55857C20.7483 7.36658 20.7638 7.17169 20.819 6.98558C20.8742 6.79947 20.9679 6.62598 21.0947 6.47551C21.2214 6.32503 21.3785 6.20068 21.5565 6.1099H21.555Z" fill="#222A36"/>
<path fill-rule="evenodd" clip-rule="evenodd" d="M18.8055 5.93568C19.536 7.25328 20.7645 7.62192 21.9525 7.01568C23.139 6.41088 23.5095 5.22576 22.779 3.90816C21.945 2.39904 20.157 1.03104 18.972 1.6344C17.787 2.2392 17.97 4.42656 18.807 5.93568H18.8055ZM20.13 5.25888C19.8644 4.74687 19.7016 4.19144 19.65 3.6216C19.6277 3.38338 19.6367 3.14341 19.677 2.90736L19.704 2.92032C19.779 2.95488 20.0115 3.05856 20.3085 3.28608C20.7615 3.63312 21.2115 4.14432 21.4545 4.58352C21.798 5.20272 21.7005 5.51376 21.2475 5.7456C20.7975 5.976 20.4735 5.87808 20.13 5.26032V5.25888Z" fill="#222A36"/>
</svg>
