<svg width="66" height="75" viewBox="0 0 66 75" fill="none" xmlns="http://www.w3.org/2000/svg">
<rect width="66" height="75" fill="#E5E5E5"/>
<g clip-path="url(#clip0_0_1)">
<rect width="1441" height="2982" transform="translate(-687 -806)" fill="white"/>
<path d="M-687 -63H754V137H-687V-63Z" fill="black"/>
<path d="M0.466675 0.0957642H65.5292L59.6125 66.9041L32.9292 74.4541L6.39167 66.8999L0.466675 0.0957642ZM53.4167 13.7666L12.5833 13.7583L13.2417 21.8791L44.6125 21.8874L43.825 30.3041H23.25L23.9958 38.2749H43.15L42.0167 49.1916L33 51.6833L23.8458 49.1708L23.2583 42.6333H15.175L16.075 54.5791L33 59.8499L49.6458 55.1124L53.4167 13.7666Z" fill="white" fill-opacity="0.5"/>
</g>
<defs>
<clipPath id="clip0_0_1">
<rect width="1441" height="2982" fill="white" transform="translate(-687 -806)"/>
</clipPath>
</defs>
</svg>
