<svg width="184" height="142" viewBox="0 0 184 142" fill="none" xmlns="http://www.w3.org/2000/svg">
<path d="M12.91 8.34C14.11 8.34 15.13 8.51 15.97 8.85C16.81 9.19 17.63 9.67 18.43 10.29C18.65 10.47 18.84 10.56 19 10.56C19.4 10.56 19.66 9.96 19.78 8.76H20.47C20.39 10.12 20.35 12.54 20.35 16.02H19.66C19.48 14.54 19.24 13.41 18.94 12.63C18.64 11.85 18.13 11.17 17.41 10.59C16.91 10.11 16.33 9.75 15.67 9.51C15.01 9.25 14.32 9.12 13.6 9.12C11.58 9.12 10.08 10.11 9.1 12.09C8.12 14.05 7.63 16.5 7.63 19.44C7.63 22.36 8.14 24.8 9.16 26.76C10.18 28.72 11.7 29.7 13.72 29.7C14.4 29.7 15.07 29.58 15.73 29.34C16.41 29.08 16.98 28.71 17.44 28.23C18.18 27.67 18.69 26.97 18.97 26.13C19.27 25.29 19.5 24.06 19.66 22.44H20.35C20.35 26.06 20.39 28.58 20.47 30H19.78C19.72 29.36 19.63 28.91 19.51 28.65C19.41 28.37 19.26 28.23 19.06 28.23C18.9 28.23 18.69 28.31 18.43 28.47C17.53 29.11 16.67 29.6 15.85 29.94C15.03 30.26 14.04 30.42 12.88 30.42C10.76 30.42 8.9 29.99 7.3 29.13C5.72 28.27 4.49 27.03 3.61 25.41C2.73 23.77 2.29 21.82 2.29 19.56C2.29 17.36 2.74 15.41 3.64 13.71C4.54 12.01 5.79 10.69 7.39 9.75C9.01 8.81 10.85 8.34 12.91 8.34ZM28.9923 27.21C28.9923 28.03 29.1323 28.6 29.4123 28.92C29.6923 29.22 30.1923 29.37 30.9123 29.37V30C28.8323 29.92 27.4923 29.88 26.8923 29.88C26.2123 29.88 24.8323 29.92 22.7523 30V29.37C23.4523 29.37 23.9423 29.22 24.2223 28.92C24.5223 28.6 24.6723 28.03 24.6723 27.21V10.11C24.6723 9.19 24.5223 8.52 24.2223 8.1C23.9423 7.68 23.4523 7.47 22.7523 7.47V6.84C23.3923 6.9 24.0123 6.93 24.6123 6.93C26.3523 6.93 27.8123 6.79 28.9923 6.51V27.21ZM36.0888 6.75C36.9288 6.75 37.5888 6.96 38.0688 7.38C38.5688 7.78 38.8188 8.34 38.8188 9.06C38.8188 9.78 38.5688 10.35 38.0688 10.77C37.5888 11.17 36.9288 11.37 36.0888 11.37C35.2488 11.37 34.5788 11.17 34.0788 10.77C33.5988 10.35 33.3588 9.78 33.3588 9.06C33.3588 8.34 33.5988 7.78 34.0788 7.38C34.5788 6.96 35.2488 6.75 36.0888 6.75ZM38.4288 27.21C38.4288 28.03 38.5688 28.6 38.8488 28.92C39.1488 29.22 39.6488 29.37 40.3488 29.37V30C38.3488 29.92 37.0188 29.88 36.3588 29.88C35.7388 29.88 34.3487 29.92 32.1888 30V29.37C32.9088 29.37 33.4088 29.22 33.6888 28.92C33.9688 28.6 34.1088 28.03 34.1088 27.21V17.76C34.1088 16.84 33.9688 16.17 33.6888 15.75C33.4088 15.33 32.9088 15.12 32.1888 15.12V14.49C32.8288 14.55 33.4488 14.58 34.0488 14.58C35.8288 14.58 37.2888 14.44 38.4288 14.16V27.21ZM50.4716 27.96C52.1116 27.96 53.4316 27.16 54.4316 25.56L54.9716 25.74C54.5716 27.04 53.8516 28.15 52.8116 29.07C51.7916 29.97 50.5116 30.42 48.9716 30.42C46.8516 30.42 45.1616 29.75 43.9016 28.41C42.6616 27.05 42.0416 25.05 42.0416 22.41C42.0416 19.71 42.7116 17.65 44.0516 16.23C45.3916 14.79 47.1716 14.07 49.3916 14.07C53.1516 14.07 55.0316 16.29 55.0316 20.73H46.6016C46.5816 21.03 46.5716 21.5 46.5716 22.14C46.5716 23.46 46.7516 24.56 47.1116 25.44C47.4916 26.32 47.9716 26.96 48.5516 27.36C49.1516 27.76 49.7916 27.96 50.4716 27.96ZM49.2116 14.7C48.4916 14.7 47.8916 15.15 47.4116 16.05C46.9516 16.93 46.6616 18.3 46.5416 20.16H51.2516C51.2916 18.58 51.1316 17.28 50.7716 16.26C50.4316 15.22 49.9116 14.7 49.2116 14.7ZM67.753 14.07C69.273 14.07 70.373 14.46 71.053 15.24C71.393 15.62 71.633 16.11 71.773 16.71C71.913 17.31 71.983 18.12 71.983 19.14V27.21C71.983 28.03 72.123 28.6 72.403 28.92C72.703 29.22 73.203 29.37 73.903 29.37V30C71.903 29.92 70.583 29.88 69.943 29.88C69.343 29.88 68.043 29.92 66.043 30V29.37C66.643 29.37 67.063 29.22 67.303 28.92C67.543 28.6 67.663 28.03 67.663 27.21V17.88C67.663 17.06 67.523 16.44 67.243 16.02C66.983 15.6 66.503 15.39 65.803 15.39C64.983 15.39 64.283 15.73 63.703 16.41C63.123 17.07 62.833 17.89 62.833 18.87V27.21C62.833 28.03 62.953 28.6 63.193 28.92C63.433 29.22 63.853 29.37 64.453 29.37V30C62.613 29.92 61.373 29.88 60.733 29.88C60.133 29.88 58.753 29.92 56.593 30V29.37C57.313 29.37 57.813 29.22 58.093 28.92C58.373 28.6 58.513 28.03 58.513 27.21V17.76C58.513 16.84 58.373 16.17 58.093 15.75C57.813 15.33 57.313 15.12 56.593 15.12V14.49C57.233 14.55 57.853 14.58 58.453 14.58C60.233 14.58 61.693 14.44 62.833 14.16V16.86C63.733 15 65.373 14.07 67.753 14.07ZM81.1108 14.49H84.6508V15.09H81.1108V27.21C81.1108 27.81 81.2108 28.24 81.4108 28.5C81.6308 28.74 81.9708 28.86 82.4308 28.86C83.2908 28.86 83.9708 28.26 84.4708 27.06L84.9808 27.33C84.2208 29.39 82.8508 30.42 80.8708 30.42C79.5508 30.42 78.5508 30.08 77.8708 29.4C77.4508 28.98 77.1608 28.46 77.0008 27.84C76.8608 27.2 76.7908 26.33 76.7908 25.23V15.09H74.2708V14.49H76.7908V10.53C78.4508 10.53 79.8908 10.21 81.1108 9.57V14.49ZM91.5077 14.07C92.2677 14.07 92.9677 14.17 93.6077 14.37C94.2477 14.55 94.7377 14.76 95.0777 15C95.2777 15.14 95.4577 15.21 95.6177 15.21C95.7977 15.21 95.9477 15.12 96.0677 14.94C96.2077 14.74 96.2977 14.46 96.3377 14.1H96.9677C96.8877 15.12 96.8477 16.88 96.8477 19.38H96.2177C96.0377 18.06 95.6377 16.96 95.0177 16.08C94.4177 15.18 93.5377 14.73 92.3777 14.73C91.7777 14.73 91.2777 14.9 90.8777 15.24C90.4977 15.58 90.3077 16.05 90.3077 16.65C90.3077 17.33 90.5377 17.92 90.9977 18.42C91.4577 18.9 92.1777 19.49 93.1577 20.19L94.0277 20.82C95.2477 21.74 96.1477 22.56 96.7277 23.28C97.3077 24 97.5977 24.9 97.5977 25.98C97.5977 26.86 97.3377 27.64 96.8177 28.32C96.3177 29 95.6377 29.52 94.7777 29.88C93.9177 30.24 92.9677 30.42 91.9277 30.42C90.8277 30.42 89.8877 30.21 89.1077 29.79C88.4677 29.47 88.0077 29.26 87.7277 29.16C87.5277 29.1 87.3477 29.17 87.1877 29.37C87.0477 29.55 86.9377 29.83 86.8577 30.21H86.2277C86.3077 29.07 86.3477 27.07 86.3477 24.21H86.9777C87.3777 27.89 88.7277 29.73 91.0277 29.73C91.6077 29.73 92.0977 29.56 92.4977 29.22C92.9177 28.86 93.1277 28.32 93.1277 27.6C93.1277 27.04 92.9977 26.54 92.7377 26.1C92.4977 25.66 92.1877 25.27 91.8077 24.93C91.4277 24.59 90.8577 24.12 90.0977 23.52C89.1977 22.8 88.5077 22.22 88.0277 21.78C87.5677 21.34 87.1677 20.82 86.8277 20.22C86.5077 19.62 86.3477 18.95 86.3477 18.21C86.3477 16.93 86.8477 15.92 87.8477 15.18C88.8477 14.44 90.0677 14.07 91.5077 14.07ZM117.617 8.34C119.737 8.34 121.587 8.77 123.167 9.63C124.767 10.49 126.007 11.74 126.887 13.38C127.767 15 128.207 16.94 128.207 19.2C128.207 21.4 127.757 23.35 126.857 25.05C125.957 26.75 124.697 28.07 123.077 29.01C121.477 29.95 119.647 30.42 117.587 30.42C115.467 30.42 113.607 29.99 112.007 29.13C110.427 28.27 109.197 27.03 108.317 25.41C107.437 23.77 106.997 21.82 106.997 19.56C106.997 17.36 107.447 15.41 108.347 13.71C109.247 12.01 110.497 10.69 112.097 9.75C113.717 8.81 115.557 8.34 117.617 8.34ZM117.497 8.88C116.397 8.88 115.427 9.33 114.587 10.23C113.747 11.11 113.097 12.35 112.637 13.95C112.197 15.55 111.977 17.38 111.977 19.44C111.977 21.52 112.227 23.35 112.727 24.93C113.247 26.51 113.937 27.73 114.797 28.59C115.677 29.45 116.647 29.88 117.707 29.88C118.807 29.88 119.777 29.44 120.617 28.56C121.457 27.66 122.097 26.41 122.537 24.81C122.997 23.21 123.227 21.38 123.227 19.32C123.227 17.24 122.967 15.41 122.447 13.83C121.947 12.25 121.257 11.03 120.377 10.17C119.517 9.31 118.557 8.88 117.497 8.88ZM141.376 14.07C142.896 14.07 143.996 14.46 144.676 15.24C145.016 15.62 145.256 16.11 145.396 16.71C145.536 17.31 145.606 18.12 145.606 19.14V27.21C145.606 28.03 145.746 28.6 146.026 28.92C146.326 29.22 146.826 29.37 147.526 29.37V30C145.526 29.92 144.206 29.88 143.566 29.88C142.966 29.88 141.666 29.92 139.666 30V29.37C140.266 29.37 140.686 29.22 140.926 28.92C141.166 28.6 141.286 28.03 141.286 27.21V17.88C141.286 17.06 141.146 16.44 140.866 16.02C140.606 15.6 140.126 15.39 139.426 15.39C138.606 15.39 137.906 15.73 137.326 16.41C136.746 17.07 136.456 17.89 136.456 18.87V27.21C136.456 28.03 136.576 28.6 136.816 28.92C137.056 29.22 137.476 29.37 138.076 29.37V30C136.236 29.92 134.996 29.88 134.356 29.88C133.756 29.88 132.376 29.92 130.216 30V29.37C130.936 29.37 131.436 29.22 131.716 28.92C131.996 28.6 132.136 28.03 132.136 27.21V17.76C132.136 16.84 131.996 16.17 131.716 15.75C131.436 15.33 130.936 15.12 130.216 15.12V14.49C130.856 14.55 131.476 14.58 132.076 14.58C133.856 14.58 135.316 14.44 136.456 14.16V16.86C137.356 15 138.996 14.07 141.376 14.07ZM27.91 44.85C28.85 44.85 29.62 44.82 30.22 44.76V45.36C29.72 45.56 29.23 45.95 28.75 46.53C28.29 47.09 27.9 47.89 27.58 48.93L22.3 66.06C22.08 66.04 21.73 66.03 21.25 66.03C20.77 66.03 20.42 66.04 20.2 66.06L15.79 52.68L11.35 66.06C11.13 66.04 10.78 66.03 10.3 66.03C9.82 66.03 9.47 66.04 9.25 66.06L2.53 47.28C2.29 46.62 2 46.14 1.66 45.84C1.32 45.54 0.98 45.38 0.64 45.36V44.76C1.84 44.82 3.33 44.85 5.11 44.85C6.79 44.85 8.02 44.82 8.8 44.76V45.36C8.1 45.46 7.75 45.85 7.75 46.53C7.75 46.85 7.84 47.3 8.02 47.88L12.4 60.57L15.43 51.63L13.9 46.98C13.7 46.4 13.46 46 13.18 45.78C12.92 45.54 12.61 45.4 12.25 45.36V44.76C13.37 44.82 14.8 44.85 16.54 44.85C18.5 44.85 19.94 44.82 20.86 44.76V45.36C20.14 45.38 19.62 45.47 19.3 45.63C18.98 45.77 18.82 46.05 18.82 46.47C18.82 46.83 18.92 47.3 19.12 47.88L23.23 60.42L26.08 51.36C26.54 49.86 26.77 48.7 26.77 47.88C26.77 47.02 26.55 46.4 26.11 46.02C25.69 45.62 25.05 45.4 24.19 45.36V44.76C25.55 44.82 26.79 44.85 27.91 44.85ZM36.3838 50.07C38.6838 50.07 40.4838 50.73 41.7838 52.05C43.0838 53.35 43.7338 55.42 43.7338 58.26C43.7338 61.1 43.0838 63.17 41.7838 64.47C40.4838 65.77 38.6838 66.42 36.3838 66.42C34.1038 66.42 32.3038 65.77 30.9838 64.47C29.6838 63.17 29.0338 61.1 29.0338 58.26C29.0338 55.42 29.6838 53.35 30.9838 52.05C32.3038 50.73 34.1038 50.07 36.3838 50.07ZM36.3838 50.67C35.5238 50.67 34.8338 51.3 34.3138 52.56C33.8138 53.8 33.5638 55.7 33.5638 58.26C33.5638 60.82 33.8138 62.72 34.3138 63.96C34.8338 65.2 35.5238 65.82 36.3838 65.82C37.2638 65.82 37.9538 65.21 38.4538 63.99C38.9538 62.75 39.2038 60.84 39.2038 58.26C39.2038 55.68 38.9438 53.77 38.4238 52.53C37.9238 51.29 37.2438 50.67 36.3838 50.67ZM55.9267 50.07C56.8267 50.07 57.5067 50.34 57.9667 50.88C58.4267 51.42 58.6567 52.07 58.6567 52.83C58.6567 53.57 58.4367 54.18 57.9967 54.66C57.5767 55.12 57.0167 55.35 56.3167 55.35C55.6367 55.35 55.0967 55.18 54.6967 54.84C54.2967 54.48 54.0967 54.01 54.0967 53.43C54.0967 52.47 54.5367 51.69 55.4167 51.09C55.3367 51.07 55.2167 51.06 55.0567 51.06C54.8567 51.06 54.6967 51.08 54.5767 51.12C53.8167 51.24 53.1667 51.7 52.6267 52.5C52.1067 53.3 51.8467 54.12 51.8467 54.96V62.91C51.8467 63.83 52.0667 64.47 52.5067 64.83C52.9667 65.19 53.6867 65.37 54.6667 65.37V66C54.3867 66 54.1567 65.99 53.9767 65.97C51.9367 65.91 50.5767 65.88 49.8967 65.88C49.3567 65.88 48.1267 65.91 46.2067 65.97C46.0467 65.99 45.8467 66 45.6067 66V65.37C46.3267 65.37 46.8267 65.22 47.1067 64.92C47.3867 64.6 47.5267 64.03 47.5267 63.21V53.76C47.5267 52.84 47.3867 52.17 47.1067 51.75C46.8267 51.33 46.3267 51.12 45.6067 51.12V50.49C46.2467 50.55 46.8667 50.58 47.4667 50.58C49.2467 50.58 50.7067 50.44 51.8467 50.16V52.95C52.2267 52.09 52.7767 51.4 53.4967 50.88C54.2167 50.34 55.0267 50.07 55.9267 50.07ZM64.9396 63.21C64.9396 64.03 65.0796 64.6 65.3596 64.92C65.6396 65.22 66.1396 65.37 66.8596 65.37V66C64.7796 65.92 63.4396 65.88 62.8396 65.88C62.1596 65.88 60.7796 65.92 58.6996 66V65.37C59.3996 65.37 59.8896 65.22 60.1696 64.92C60.4696 64.6 60.6196 64.03 60.6196 63.21V46.11C60.6196 45.19 60.4696 44.52 60.1696 44.1C59.8896 43.68 59.3996 43.47 58.6996 43.47V42.84C59.3396 42.9 59.9596 42.93 60.5596 42.93C62.2996 42.93 63.7596 42.79 64.9396 42.51V63.21ZM82.603 62.7C82.603 63.62 82.743 64.29 83.023 64.71C83.303 65.13 83.803 65.34 84.523 65.34V65.97C83.903 65.91 83.283 65.88 82.663 65.88C80.883 65.88 79.423 66.02 78.283 66.3V63.72C77.603 65.52 76.303 66.42 74.383 66.42C72.503 66.42 71.003 65.74 69.883 64.38C68.783 63 68.243 60.93 68.263 58.17C68.263 56.41 68.543 54.93 69.103 53.73C69.683 52.51 70.473 51.6 71.473 51C72.493 50.38 73.653 50.07 74.953 50.07C76.413 50.07 77.523 50.45 78.283 51.21V46.11C78.283 45.19 78.133 44.52 77.833 44.1C77.553 43.68 77.063 43.47 76.363 43.47V42.84C77.003 42.9 77.623 42.93 78.223 42.93C79.963 42.93 81.423 42.79 82.603 42.51V62.7ZM75.613 65.13C76.273 65.13 76.853 64.89 77.353 64.41C77.873 63.93 78.183 63.28 78.283 62.46V51.96C77.783 51.28 77.053 50.94 76.093 50.94C75.033 50.94 74.213 51.55 73.633 52.77C73.053 53.99 72.773 55.81 72.793 58.23C72.773 60.67 73.003 62.43 73.483 63.51C73.983 64.59 74.693 65.13 75.613 65.13ZM106.383 50.58C107.403 50.58 108.163 50.55 108.663 50.49V51.09C108.243 51.21 107.863 51.46 107.523 51.84C107.183 52.22 106.883 52.83 106.623 53.67L102.633 66.06C102.413 66.04 102.083 66.03 101.643 66.03C101.223 66.03 100.903 66.04 100.683 66.06L96.6027 54.93L93.2727 66.06C93.0727 66.04 92.7527 66.03 92.3127 66.03C91.8727 66.03 91.5427 66.04 91.3227 66.06L86.5827 52.8C86.3427 52.1 86.0727 51.65 85.7727 51.45C85.4727 51.23 85.1627 51.12 84.8427 51.12V50.49C86.1427 50.61 87.5627 50.67 89.1027 50.67C90.1027 50.67 91.4027 50.61 93.0027 50.49V51.12C92.3427 51.12 91.8627 51.17 91.5627 51.27C91.2827 51.37 91.1427 51.61 91.1427 51.99C91.1427 52.25 91.1927 52.52 91.2927 52.8L93.9927 61.29L97.2627 50.46L98.3727 50.49L99.4527 50.46L103.353 61.92L105.243 55.89C105.523 54.95 105.663 54.19 105.663 53.61C105.663 52.05 104.873 51.21 103.293 51.09V50.49C104.233 50.55 105.263 50.58 106.383 50.58ZM113.286 42.75C114.126 42.75 114.786 42.96 115.266 43.38C115.766 43.78 116.016 44.34 116.016 45.06C116.016 45.78 115.766 46.35 115.266 46.77C114.786 47.17 114.126 47.37 113.286 47.37C112.446 47.37 111.776 47.17 111.276 46.77C110.796 46.35 110.556 45.78 110.556 45.06C110.556 44.34 110.796 43.78 111.276 43.38C111.776 42.96 112.446 42.75 113.286 42.75ZM115.626 63.21C115.626 64.03 115.766 64.6 116.046 64.92C116.346 65.22 116.846 65.37 117.546 65.37V66C115.546 65.92 114.216 65.88 113.556 65.88C112.936 65.88 111.546 65.92 109.386 66V65.37C110.106 65.37 110.606 65.22 110.886 64.92C111.166 64.6 111.306 64.03 111.306 63.21V53.76C111.306 52.84 111.166 52.17 110.886 51.75C110.606 51.33 110.106 51.12 109.386 51.12V50.49C110.026 50.55 110.646 50.58 111.246 50.58C113.026 50.58 114.486 50.44 115.626 50.16V63.21ZM133.609 62.7C133.609 63.62 133.749 64.29 134.029 64.71C134.309 65.13 134.809 65.34 135.529 65.34V65.97C134.909 65.91 134.289 65.88 133.669 65.88C131.889 65.88 130.429 66.02 129.289 66.3V63.72C128.609 65.52 127.309 66.42 125.389 66.42C123.509 66.42 122.009 65.74 120.889 64.38C119.789 63 119.249 60.93 119.269 58.17C119.269 56.41 119.549 54.93 120.109 53.73C120.689 52.51 121.479 51.6 122.479 51C123.499 50.38 124.659 50.07 125.959 50.07C127.419 50.07 128.529 50.45 129.289 51.21V46.11C129.289 45.19 129.139 44.52 128.839 44.1C128.559 43.68 128.069 43.47 127.369 43.47V42.84C128.009 42.9 128.629 42.93 129.229 42.93C130.969 42.93 132.429 42.79 133.609 42.51V62.7ZM126.619 65.13C127.279 65.13 127.859 64.89 128.359 64.41C128.879 63.93 129.189 63.28 129.289 62.46V51.96C128.789 51.28 128.059 50.94 127.099 50.94C126.039 50.94 125.219 51.55 124.639 52.77C124.059 53.99 123.779 55.81 123.799 58.23C123.779 60.67 124.009 62.43 124.489 63.51C124.989 64.59 125.699 65.13 126.619 65.13ZM145.599 63.96C147.239 63.96 148.559 63.16 149.559 61.56L150.099 61.74C149.699 63.04 148.979 64.15 147.939 65.07C146.919 65.97 145.639 66.42 144.099 66.42C141.979 66.42 140.289 65.75 139.029 64.41C137.789 63.05 137.169 61.05 137.169 58.41C137.169 55.71 137.839 53.65 139.179 52.23C140.519 50.79 142.299 50.07 144.519 50.07C148.279 50.07 150.159 52.29 150.159 56.73H141.729C141.709 57.03 141.699 57.5 141.699 58.14C141.699 59.46 141.879 60.56 142.239 61.44C142.619 62.32 143.099 62.96 143.679 63.36C144.279 63.76 144.919 63.96 145.599 63.96ZM144.339 50.7C143.619 50.7 143.019 51.15 142.539 52.05C142.079 52.93 141.789 54.3 141.669 56.16H146.379C146.419 54.58 146.259 53.28 145.899 52.26C145.559 51.22 145.039 50.7 144.339 50.7Z" fill="white"/>
<path d="M16.25 114.5H27.85V116H16.25V127.75H14.45V116H2.8V114.5H14.45V102.7H16.25V114.5ZM58.7309 112C60.7975 113.767 62.3475 115.167 63.3809 116.2C64.4475 117.2 65.3809 118.4 66.1809 119.8C66.9809 121.167 67.3809 122.65 67.3809 124.25C67.3809 126.083 66.8475 127.717 65.7809 129.15C64.7475 130.583 63.2975 131.7 61.4309 132.5C59.5642 133.3 57.4642 133.7 55.1309 133.7C53.0309 133.7 51.0975 133.383 49.3309 132.75C47.5642 132.083 46.1475 131.1 45.0809 129.8C44.0475 128.5 43.5309 126.95 43.5309 125.15C43.5309 122.983 44.2642 121.1 45.7309 119.5C47.1975 117.9 49.1809 116.55 51.6809 115.45C49.6142 113.683 48.0142 112.017 46.8809 110.45C45.7475 108.85 45.1809 107.05 45.1809 105.05C45.1809 103.317 45.6642 101.833 46.6309 100.6C47.5975 99.3667 48.8809 98.45 50.4809 97.85C52.0809 97.2167 53.8475 96.9 55.7809 96.9C58.6475 96.9 60.9975 97.55 62.8309 98.85C64.6642 100.117 65.5809 101.8 65.5809 103.9C65.5809 105.533 64.9975 107 63.8309 108.3C62.6975 109.567 60.9975 110.8 58.7309 112ZM55.3809 97.8C54.2809 97.8 53.3975 98.1833 52.7309 98.95C52.0975 99.6833 51.7809 100.683 51.7809 101.95C51.7809 103.617 52.2975 105.167 53.3309 106.6C54.3975 108.033 55.9309 109.617 57.9309 111.35C58.5642 110.45 59.0309 109.367 59.3309 108.1C59.6309 106.8 59.7809 105.533 59.7809 104.3C59.7809 102.267 59.3809 100.683 58.5809 99.55C57.8142 98.3833 56.7475 97.8 55.3809 97.8ZM55.3809 132.8C56.9475 132.8 58.1809 132.317 59.0809 131.35C59.9809 130.35 60.4309 129.033 60.4309 127.4C60.4309 125.9 60.0642 124.517 59.3309 123.25C58.5975 121.983 57.7309 120.867 56.7309 119.9C55.7309 118.933 54.2975 117.667 52.4309 116.1C50.6309 118 49.7309 120.717 49.7309 124.25C49.7309 126.783 50.1642 128.85 51.0309 130.45C51.9309 132.017 53.3809 132.8 55.3809 132.8ZM85.8082 106.45C88.4415 106.45 90.7915 107 92.8582 108.1C94.9249 109.2 96.5249 110.75 97.6582 112.75C98.8249 114.75 99.4082 117.05 99.4082 119.65C99.4082 122.317 98.8082 124.717 97.6082 126.85C96.4415 128.983 94.7749 130.667 92.6082 131.9C90.4749 133.1 88.0249 133.7 85.2582 133.7C82.6582 133.7 80.3249 133.15 78.2582 132.05C76.1915 130.95 74.5749 129.4 73.4082 127.4C72.2415 125.4 71.6582 123.083 71.6582 120.45C71.6582 117.817 72.2415 115.433 73.4082 113.3C74.6082 111.167 76.2749 109.5 78.4082 108.3C80.5415 107.067 83.0082 106.45 85.8082 106.45ZM85.3582 107.35C84.1582 107.35 83.0915 107.867 82.1582 108.9C81.2249 109.933 80.4915 111.433 79.9582 113.4C79.4582 115.333 79.2082 117.633 79.2082 120.3C79.2082 124.533 79.8082 127.683 81.0082 129.75C82.2415 131.783 83.8082 132.8 85.7082 132.8C86.9082 132.8 87.9582 132.283 88.8582 131.25C89.7915 130.183 90.5249 128.683 91.0582 126.75C91.5915 124.783 91.8582 122.467 91.8582 119.8C91.8582 115.567 91.2415 112.433 90.0082 110.4C88.8082 108.367 87.2582 107.35 85.3582 107.35Z" fill="#676CDB"/>
</svg>
