<svg width="164" height="142" viewBox="0 0 164 142" fill="none" xmlns="http://www.w3.org/2000/svg">
<path d="M8.52 8.37C9.56 8.37 10.39 8.47 11.01 8.67C11.63 8.87 12.26 9.16 12.9 9.54C13.12 9.66 13.31 9.76 13.47 9.84C13.65 9.92 13.8 9.96 13.92 9.96C14.1 9.96 14.24 9.86 14.34 9.66C14.44 9.44 14.52 9.1 14.58 8.64H15.27C15.17 9.98 15.12 12.26 15.12 15.48H14.43C14.35 14.4 14.1 13.37 13.68 12.39C13.28 11.41 12.7 10.62 11.94 10.02C11.2 9.4 10.33 9.09 9.33 9.09C8.35 9.09 7.55 9.37 6.93 9.93C6.33 10.47 6.03 11.21 6.03 12.15C6.03 12.85 6.18 13.46 6.48 13.98C6.78 14.5 7.2 14.98 7.74 15.42C8.28 15.84 9.11 16.42 10.23 17.16L11.19 17.82C12.37 18.6 13.3 19.28 13.98 19.86C14.66 20.44 15.21 21.12 15.63 21.9C16.07 22.66 16.29 23.55 16.29 24.57C16.29 25.85 15.96 26.93 15.3 27.81C14.64 28.67 13.74 29.32 12.6 29.76C11.48 30.2 10.23 30.42 8.85 30.42C7.73 30.42 6.8 30.32 6.06 30.12C5.32 29.92 4.64 29.65 4.02 29.31C3.58 29.03 3.24 28.89 3 28.89C2.82 28.89 2.68 29 2.58 29.22C2.48 29.42 2.4 29.75 2.34 30.21H1.65C1.73 28.95 1.77 26.25 1.77 22.11H2.46C2.6 24.35 3.1 26.17 3.96 27.57C4.82 28.95 6.14 29.64 7.92 29.64C9 29.64 9.89 29.35 10.59 28.77C11.29 28.19 11.64 27.36 11.64 26.28C11.64 25.16 11.28 24.2 10.56 23.4C9.84 22.6 8.7 21.7 7.14 20.7C5.94 19.92 4.98 19.24 4.26 18.66C3.54 18.08 2.95 17.4 2.49 16.62C2.03 15.82 1.8 14.9 1.8 13.86C1.8 12.66 2.1 11.65 2.7 10.83C3.32 9.99 4.14 9.37 5.16 8.97C6.18 8.57 7.3 8.37 8.52 8.37ZM22.1995 30.21C20.9195 30.21 19.9595 29.88 19.3195 29.22C18.6995 28.56 18.3895 27.69 18.3895 26.61C18.3895 25.71 18.6195 24.97 19.0795 24.39C19.5595 23.79 20.1295 23.33 20.7895 23.01C21.4695 22.69 22.3295 22.35 23.3695 21.99C24.4695 21.61 25.2695 21.27 25.7695 20.97C26.2895 20.65 26.5495 20.22 26.5495 19.68V17.34C26.5495 16.5 26.3495 15.85 25.9495 15.39C25.5695 14.91 24.9695 14.67 24.1495 14.67C23.1895 14.67 22.4595 14.91 21.9595 15.39C22.5195 15.59 22.9495 15.89 23.2495 16.29C23.5695 16.69 23.7295 17.16 23.7295 17.7C23.7295 18.38 23.4995 18.92 23.0395 19.32C22.5795 19.72 22.0195 19.92 21.3595 19.92C20.6595 19.92 20.1195 19.7 19.7395 19.26C19.3595 18.82 19.1695 18.27 19.1695 17.61C19.1695 17.05 19.2995 16.58 19.5595 16.2C19.8395 15.8 20.2595 15.43 20.8195 15.09C21.3595 14.77 22.0195 14.52 22.7995 14.34C23.5995 14.16 24.4695 14.07 25.4095 14.07C26.3895 14.07 27.2395 14.17 27.9595 14.37C28.6795 14.57 29.2795 14.91 29.7595 15.39C30.1995 15.83 30.4895 16.37 30.6295 17.01C30.7895 17.65 30.8695 18.52 30.8695 19.62V27.78C30.8695 28.26 30.9095 28.6 30.9895 28.8C31.0895 29 31.2695 29.1 31.5295 29.1C31.8295 29.1 32.1895 28.93 32.6095 28.59L32.9095 29.1C32.0095 29.84 30.9095 30.21 29.6095 30.21C28.5095 30.21 27.7395 29.99 27.2995 29.55C26.8595 29.11 26.6295 28.52 26.6095 27.78C25.6095 29.4 24.1395 30.21 22.1995 30.21ZM24.5095 28.29C25.2895 28.29 25.9695 27.88 26.5495 27.06V20.91C26.3095 21.31 25.7995 21.75 25.0195 22.23C24.2395 22.73 23.6495 23.23 23.2495 23.73C22.8495 24.23 22.6495 24.95 22.6495 25.89C22.6495 26.71 22.8195 27.32 23.1595 27.72C23.4995 28.1 23.9495 28.29 24.5095 28.29ZM39.8569 14.49H43.3969V15.09H39.8569V27.21C39.8569 27.81 39.9569 28.24 40.1569 28.5C40.3769 28.74 40.7169 28.86 41.1769 28.86C42.0369 28.86 42.7169 28.26 43.2169 27.06L43.7269 27.33C42.9669 29.39 41.5969 30.42 39.6169 30.42C38.2969 30.42 37.2969 30.08 36.6169 29.4C36.1969 28.98 35.9069 28.46 35.7469 27.84C35.6069 27.2 35.5369 26.33 35.5369 25.23V15.09H33.0169V14.49H35.5369V10.53C37.1969 10.53 38.6369 10.21 39.8569 9.57V14.49ZM48.2138 6.75C49.0538 6.75 49.7138 6.96 50.1938 7.38C50.6938 7.78 50.9438 8.34 50.9438 9.06C50.9438 9.78 50.6938 10.35 50.1938 10.77C49.7138 11.17 49.0538 11.37 48.2138 11.37C47.3738 11.37 46.7038 11.17 46.2038 10.77C45.7238 10.35 45.4838 9.78 45.4838 9.06C45.4838 8.34 45.7238 7.78 46.2038 7.38C46.7038 6.96 47.3738 6.75 48.2138 6.75ZM50.5538 27.21C50.5538 28.03 50.6938 28.6 50.9738 28.92C51.2738 29.22 51.7738 29.37 52.4738 29.37V30C50.4738 29.92 49.1438 29.88 48.4838 29.88C47.8638 29.88 46.4737 29.92 44.3138 30V29.37C45.0338 29.37 45.5338 29.22 45.8138 28.92C46.0938 28.6 46.2338 28.03 46.2338 27.21V17.76C46.2338 16.84 46.0938 16.17 45.8138 15.75C45.5338 15.33 45.0338 15.12 44.3138 15.12V14.49C44.9538 14.55 45.5738 14.58 46.1738 14.58C47.9538 14.58 49.4138 14.44 50.5538 14.16V27.21ZM59.7166 14.07C60.4766 14.07 61.1766 14.17 61.8166 14.37C62.4566 14.55 62.9466 14.76 63.2866 15C63.4866 15.14 63.6666 15.21 63.8266 15.21C64.0066 15.21 64.1566 15.12 64.2766 14.94C64.4166 14.74 64.5066 14.46 64.5466 14.1H65.1766C65.0966 15.12 65.0566 16.88 65.0566 19.38H64.4266C64.2466 18.06 63.8466 16.96 63.2266 16.08C62.6266 15.18 61.7466 14.73 60.5866 14.73C59.9866 14.73 59.4866 14.9 59.0866 15.24C58.7066 15.58 58.5166 16.05 58.5166 16.65C58.5166 17.33 58.7466 17.92 59.2066 18.42C59.6666 18.9 60.3866 19.49 61.3666 20.19L62.2366 20.82C63.4566 21.74 64.3566 22.56 64.9366 23.28C65.5166 24 65.8066 24.9 65.8066 25.98C65.8066 26.86 65.5466 27.64 65.0266 28.32C64.5266 29 63.8466 29.52 62.9866 29.88C62.1266 30.24 61.1766 30.42 60.1366 30.42C59.0366 30.42 58.0966 30.21 57.3166 29.79C56.6766 29.47 56.2166 29.26 55.9366 29.16C55.7366 29.1 55.5566 29.17 55.3966 29.37C55.2566 29.55 55.1466 29.83 55.0666 30.21H54.4366C54.5166 29.07 54.5566 27.07 54.5566 24.21H55.1866C55.5866 27.89 56.9366 29.73 59.2366 29.73C59.8166 29.73 60.3066 29.56 60.7066 29.22C61.1266 28.86 61.3366 28.32 61.3366 27.6C61.3366 27.04 61.2066 26.54 60.9466 26.1C60.7066 25.66 60.3966 25.27 60.0166 24.93C59.6366 24.59 59.0666 24.12 58.3066 23.52C57.4066 22.8 56.7166 22.22 56.2366 21.78C55.7766 21.34 55.3766 20.82 55.0366 20.22C54.7166 19.62 54.5566 18.95 54.5566 18.21C54.5566 16.93 55.0566 15.92 56.0566 15.18C57.0566 14.44 58.2766 14.07 59.7166 14.07ZM75.5541 6.54C76.7941 6.54 77.8641 6.87 78.7641 7.53C79.0641 7.77 79.3041 8.09 79.4841 8.49C79.6841 8.87 79.7841 9.3 79.7841 9.78C79.7841 10.34 79.5841 10.83 79.1841 11.25C78.7841 11.65 78.2741 11.85 77.6541 11.85C76.9741 11.85 76.4241 11.66 76.0041 11.28C75.5841 10.9 75.3741 10.38 75.3741 9.72C75.3741 9.2 75.5241 8.74 75.8241 8.34C76.1241 7.94 76.5641 7.66 77.1441 7.5C77.0841 7.38 76.9541 7.28 76.7541 7.2C76.5741 7.12 76.3441 7.08 76.0641 7.08C75.3041 7.08 74.7641 7.34 74.4441 7.86C74.2241 8.16 74.0741 8.6 73.9941 9.18C73.9141 9.76 73.8741 10.63 73.8741 11.79V14.52H77.0841V15.12H73.8741V26.91C73.8741 27.83 74.1041 28.47 74.5641 28.83C75.0441 29.19 75.7541 29.37 76.6941 29.37V30L75.8541 29.97C73.6341 29.91 72.1941 29.88 71.5341 29.88C70.9341 29.88 69.6341 29.92 67.6341 30V29.37C68.3541 29.37 68.8541 29.22 69.1341 28.92C69.4141 28.6 69.5541 28.03 69.5541 27.21V15.12H67.5141V14.52H69.5541C69.5541 12.78 69.6941 11.44 69.9741 10.5C70.2541 9.54 70.7441 8.72 71.4441 8.04C71.8841 7.6 72.4741 7.24 73.2141 6.96C73.9541 6.68 74.7341 6.54 75.5541 6.54ZM82.1409 30.21C80.8609 30.21 79.9009 29.88 79.2609 29.22C78.6409 28.56 78.3309 27.69 78.3309 26.61C78.3309 25.71 78.5609 24.97 79.0209 24.39C79.5009 23.79 80.0709 23.33 80.7309 23.01C81.4109 22.69 82.2709 22.35 83.3109 21.99C84.4109 21.61 85.2109 21.27 85.7109 20.97C86.2309 20.65 86.4909 20.22 86.4909 19.68V17.34C86.4909 16.5 86.2909 15.85 85.8909 15.39C85.5109 14.91 84.9109 14.67 84.0909 14.67C83.1309 14.67 82.4009 14.91 81.9009 15.39C82.4609 15.59 82.8909 15.89 83.1909 16.29C83.5109 16.69 83.6709 17.16 83.6709 17.7C83.6709 18.38 83.4409 18.92 82.9809 19.32C82.5209 19.72 81.9609 19.92 81.3009 19.92C80.6009 19.92 80.0609 19.7 79.6809 19.26C79.3009 18.82 79.1109 18.27 79.1109 17.61C79.1109 17.05 79.2409 16.58 79.5009 16.2C79.7809 15.8 80.2009 15.43 80.7609 15.09C81.3009 14.77 81.9609 14.52 82.7409 14.34C83.5409 14.16 84.4109 14.07 85.3509 14.07C86.3309 14.07 87.1809 14.17 87.9009 14.37C88.6209 14.57 89.2209 14.91 89.7009 15.39C90.1409 15.83 90.4309 16.37 90.5709 17.01C90.7309 17.65 90.8109 18.52 90.8109 19.62V27.78C90.8109 28.26 90.8509 28.6 90.9309 28.8C91.0309 29 91.2109 29.1 91.4709 29.1C91.7709 29.1 92.1309 28.93 92.5509 28.59L92.8509 29.1C91.9509 29.84 90.8509 30.21 89.5509 30.21C88.4509 30.21 87.6809 29.99 87.2409 29.55C86.8009 29.11 86.5709 28.52 86.5509 27.78C85.5509 29.4 84.0809 30.21 82.1409 30.21ZM84.4509 28.29C85.2309 28.29 85.9109 27.88 86.4909 27.06V20.91C86.2509 21.31 85.7409 21.75 84.9609 22.23C84.1809 22.73 83.5909 23.23 83.1909 23.73C82.7909 24.23 82.5909 24.95 82.5909 25.89C82.5909 26.71 82.7609 27.32 83.1009 27.72C83.4409 28.1 83.8909 28.29 84.4509 28.29ZM101.508 14.07C102.248 14.07 102.948 14.15 103.608 14.31C104.268 14.47 104.818 14.69 105.258 14.97C105.778 15.29 106.178 15.7 106.458 16.2C106.758 16.68 106.908 17.21 106.908 17.79C106.908 18.49 106.688 19.07 106.248 19.53C105.808 19.97 105.238 20.19 104.538 20.19C103.838 20.19 103.278 19.99 102.858 19.59C102.438 19.19 102.228 18.65 102.228 17.97C102.228 17.37 102.418 16.85 102.798 16.41C103.178 15.97 103.648 15.67 104.208 15.51C104.048 15.29 103.798 15.12 103.458 15C103.138 14.86 102.788 14.79 102.408 14.79C101.208 14.79 100.268 15.45 99.5883 16.77C98.9283 18.07 98.5983 19.78 98.5983 21.9C98.5983 24.04 98.9783 25.58 99.7383 26.52C100.498 27.46 101.448 27.93 102.588 27.93C103.268 27.93 103.948 27.75 104.628 27.39C105.328 27.03 105.958 26.4 106.518 25.5L107.028 25.68C106.628 26.98 105.928 28.1 104.928 29.04C103.928 29.96 102.638 30.42 101.058 30.42C98.9983 30.42 97.3183 29.74 96.0183 28.38C94.7183 27.02 94.0683 25 94.0683 22.32C94.0683 20.56 94.3883 19.06 95.0283 17.82C95.6683 16.58 96.5483 15.65 97.6683 15.03C98.7883 14.39 100.068 14.07 101.508 14.07ZM114.681 14.49H118.221V15.09H114.681V27.21C114.681 27.81 114.781 28.24 114.981 28.5C115.201 28.74 115.541 28.86 116.001 28.86C116.861 28.86 117.541 28.26 118.041 27.06L118.551 27.33C117.791 29.39 116.421 30.42 114.441 30.42C113.121 30.42 112.121 30.08 111.441 29.4C111.021 28.98 110.731 28.46 110.571 27.84C110.431 27.2 110.361 26.33 110.361 25.23V15.09H107.841V14.49H110.361V10.53C112.021 10.53 113.461 10.21 114.681 9.57V14.49ZM123.038 6.75C123.878 6.75 124.538 6.96 125.018 7.38C125.518 7.78 125.768 8.34 125.768 9.06C125.768 9.78 125.518 10.35 125.018 10.77C124.538 11.17 123.878 11.37 123.038 11.37C122.198 11.37 121.528 11.17 121.028 10.77C120.548 10.35 120.308 9.78 120.308 9.06C120.308 8.34 120.548 7.78 121.028 7.38C121.528 6.96 122.198 6.75 123.038 6.75ZM125.378 27.21C125.378 28.03 125.518 28.6 125.798 28.92C126.098 29.22 126.598 29.37 127.298 29.37V30C125.298 29.92 123.968 29.88 123.308 29.88C122.688 29.88 121.298 29.92 119.138 30V29.37C119.858 29.37 120.358 29.22 120.638 28.92C120.918 28.6 121.058 28.03 121.058 27.21V17.76C121.058 16.84 120.918 16.17 120.638 15.75C120.358 15.33 119.858 15.12 119.138 15.12V14.49C119.778 14.55 120.398 14.58 120.998 14.58C122.778 14.58 124.238 14.44 125.378 14.16V27.21ZM136.341 14.07C138.641 14.07 140.441 14.73 141.741 16.05C143.041 17.35 143.691 19.42 143.691 22.26C143.691 25.1 143.041 27.17 141.741 28.47C140.441 29.77 138.641 30.42 136.341 30.42C134.061 30.42 132.261 29.77 130.941 28.47C129.641 27.17 128.991 25.1 128.991 22.26C128.991 19.42 129.641 17.35 130.941 16.05C132.261 14.73 134.061 14.07 136.341 14.07ZM136.341 14.67C135.481 14.67 134.791 15.3 134.271 16.56C133.771 17.8 133.521 19.7 133.521 22.26C133.521 24.82 133.771 26.72 134.271 27.96C134.791 29.2 135.481 29.82 136.341 29.82C137.221 29.82 137.911 29.21 138.411 27.99C138.911 26.75 139.161 24.84 139.161 22.26C139.161 19.68 138.901 17.77 138.381 16.53C137.881 15.29 137.201 14.67 136.341 14.67ZM156.724 14.07C158.244 14.07 159.344 14.46 160.024 15.24C160.364 15.62 160.604 16.11 160.744 16.71C160.884 17.31 160.954 18.12 160.954 19.14V27.21C160.954 28.03 161.094 28.6 161.374 28.92C161.674 29.22 162.174 29.37 162.874 29.37V30C160.874 29.92 159.554 29.88 158.914 29.88C158.314 29.88 157.014 29.92 155.014 30V29.37C155.614 29.37 156.034 29.22 156.274 28.92C156.514 28.6 156.634 28.03 156.634 27.21V17.88C156.634 17.06 156.494 16.44 156.214 16.02C155.954 15.6 155.474 15.39 154.774 15.39C153.954 15.39 153.254 15.73 152.674 16.41C152.094 17.07 151.804 17.89 151.804 18.87V27.21C151.804 28.03 151.924 28.6 152.164 28.92C152.404 29.22 152.824 29.37 153.424 29.37V30C151.584 29.92 150.344 29.88 149.704 29.88C149.104 29.88 147.724 29.92 145.564 30V29.37C146.284 29.37 146.784 29.22 147.064 28.92C147.344 28.6 147.484 28.03 147.484 27.21V17.76C147.484 16.84 147.344 16.17 147.064 15.75C146.784 15.33 146.284 15.12 145.564 15.12V14.49C146.204 14.55 146.824 14.58 147.424 14.58C149.204 14.58 150.664 14.44 151.804 14.16V16.86C152.704 15 154.344 14.07 156.724 14.07ZM11.91 44.34C13.11 44.34 14.13 44.51 14.97 44.85C15.81 45.19 16.63 45.67 17.43 46.29C17.65 46.47 17.84 46.56 18 46.56C18.4 46.56 18.66 45.96 18.78 44.76H19.47C19.39 46.12 19.35 48.54 19.35 52.02H18.66C18.48 50.54 18.24 49.41 17.94 48.63C17.64 47.85 17.13 47.17 16.41 46.59C15.91 46.11 15.33 45.75 14.67 45.51C14.01 45.25 13.32 45.12 12.6 45.12C10.58 45.12 9.08 46.11 8.1 48.09C7.12 50.05 6.63 52.5 6.63 55.44C6.63 58.36 7.14 60.8 8.16 62.76C9.18 64.72 10.7 65.7 12.72 65.7C13.4 65.7 14.07 65.58 14.73 65.34C15.41 65.08 15.98 64.71 16.44 64.23C17.18 63.67 17.69 62.97 17.97 62.13C18.27 61.29 18.5 60.06 18.66 58.44H19.35C19.35 62.06 19.39 64.58 19.47 66H18.78C18.72 65.36 18.63 64.91 18.51 64.65C18.41 64.37 18.26 64.23 18.06 64.23C17.9 64.23 17.69 64.31 17.43 64.47C16.53 65.11 15.67 65.6 14.85 65.94C14.03 66.26 13.04 66.42 11.88 66.42C9.76 66.42 7.9 65.99 6.3 65.13C4.72 64.27 3.49 63.03 2.61 61.41C1.73 59.77 1.29 57.82 1.29 55.56C1.29 53.36 1.74 51.41 2.64 49.71C3.54 48.01 4.79 46.69 6.39 45.75C8.01 44.81 9.85 44.34 11.91 44.34ZM27.9923 63.21C27.9923 64.03 28.1323 64.6 28.4123 64.92C28.6923 65.22 29.1923 65.37 29.9123 65.37V66C27.8323 65.92 26.4923 65.88 25.8923 65.88C25.2123 65.88 23.8323 65.92 21.7523 66V65.37C22.4523 65.37 22.9423 65.22 23.2223 64.92C23.5223 64.6 23.6723 64.03 23.6723 63.21V46.11C23.6723 45.19 23.5223 44.52 23.2223 44.1C22.9423 43.68 22.4523 43.47 21.7523 43.47V42.84C22.3923 42.9 23.0123 42.93 23.6123 42.93C25.3523 42.93 26.8123 42.79 27.9923 42.51V63.21ZM35.0888 42.75C35.9288 42.75 36.5888 42.96 37.0688 43.38C37.5688 43.78 37.8188 44.34 37.8188 45.06C37.8188 45.78 37.5688 46.35 37.0688 46.77C36.5888 47.17 35.9288 47.37 35.0888 47.37C34.2488 47.37 33.5788 47.17 33.0788 46.77C32.5988 46.35 32.3588 45.78 32.3588 45.06C32.3588 44.34 32.5988 43.78 33.0788 43.38C33.5788 42.96 34.2488 42.75 35.0888 42.75ZM37.4288 63.21C37.4288 64.03 37.5688 64.6 37.8488 64.92C38.1488 65.22 38.6488 65.37 39.3488 65.37V66C37.3488 65.92 36.0188 65.88 35.3588 65.88C34.7388 65.88 33.3487 65.92 31.1888 66V65.37C31.9088 65.37 32.4088 65.22 32.6888 64.92C32.9688 64.6 33.1088 64.03 33.1088 63.21V53.76C33.1088 52.84 32.9688 52.17 32.6888 51.75C32.4088 51.33 31.9088 51.12 31.1888 51.12V50.49C31.8288 50.55 32.4488 50.58 33.0488 50.58C34.8288 50.58 36.2888 50.44 37.4288 50.16V63.21ZM49.4716 63.96C51.1116 63.96 52.4316 63.16 53.4316 61.56L53.9716 61.74C53.5716 63.04 52.8516 64.15 51.8116 65.07C50.7916 65.97 49.5116 66.42 47.9716 66.42C45.8516 66.42 44.1616 65.75 42.9016 64.41C41.6616 63.05 41.0416 61.05 41.0416 58.41C41.0416 55.71 41.7116 53.65 43.0516 52.23C44.3916 50.79 46.1716 50.07 48.3916 50.07C52.1516 50.07 54.0316 52.29 54.0316 56.73H45.6016C45.5816 57.03 45.5716 57.5 45.5716 58.14C45.5716 59.46 45.7516 60.56 46.1116 61.44C46.4916 62.32 46.9716 62.96 47.5516 63.36C48.1516 63.76 48.7916 63.96 49.4716 63.96ZM48.2116 50.7C47.4916 50.7 46.8916 51.15 46.4116 52.05C45.9516 52.93 45.6616 54.3 45.5416 56.16H50.2516C50.2916 54.58 50.1316 53.28 49.7716 52.26C49.4316 51.22 48.9116 50.7 48.2116 50.7ZM66.753 50.07C68.273 50.07 69.373 50.46 70.053 51.24C70.393 51.62 70.633 52.11 70.773 52.71C70.913 53.31 70.983 54.12 70.983 55.14V63.21C70.983 64.03 71.123 64.6 71.403 64.92C71.703 65.22 72.203 65.37 72.903 65.37V66C70.903 65.92 69.583 65.88 68.943 65.88C68.343 65.88 67.043 65.92 65.043 66V65.37C65.643 65.37 66.063 65.22 66.303 64.92C66.543 64.6 66.663 64.03 66.663 63.21V53.88C66.663 53.06 66.523 52.44 66.243 52.02C65.983 51.6 65.503 51.39 64.803 51.39C63.983 51.39 63.283 51.73 62.703 52.41C62.123 53.07 61.833 53.89 61.833 54.87V63.21C61.833 64.03 61.953 64.6 62.193 64.92C62.433 65.22 62.853 65.37 63.453 65.37V66C61.613 65.92 60.373 65.88 59.733 65.88C59.133 65.88 57.753 65.92 55.593 66V65.37C56.313 65.37 56.813 65.22 57.093 64.92C57.373 64.6 57.513 64.03 57.513 63.21V53.76C57.513 52.84 57.373 52.17 57.093 51.75C56.813 51.33 56.313 51.12 55.593 51.12V50.49C56.233 50.55 56.853 50.58 57.453 50.58C59.233 50.58 60.693 50.44 61.833 50.16V52.86C62.733 51 64.373 50.07 66.753 50.07ZM80.1108 50.49H83.6508V51.09H80.1108V63.21C80.1108 63.81 80.2108 64.24 80.4108 64.5C80.6308 64.74 80.9708 64.86 81.4308 64.86C82.2908 64.86 82.9708 64.26 83.4708 63.06L83.9808 63.33C83.2208 65.39 81.8508 66.42 79.8708 66.42C78.5508 66.42 77.5508 66.08 76.8708 65.4C76.4508 64.98 76.1608 64.46 76.0008 63.84C75.8608 63.2 75.7908 62.33 75.7908 61.23V51.09H73.2708V50.49H75.7908V46.53C77.4508 46.53 78.8908 46.21 80.1108 45.57V50.49ZM90.5077 50.07C91.2677 50.07 91.9677 50.17 92.6077 50.37C93.2477 50.55 93.7377 50.76 94.0777 51C94.2777 51.14 94.4577 51.21 94.6177 51.21C94.7977 51.21 94.9477 51.12 95.0677 50.94C95.2077 50.74 95.2977 50.46 95.3377 50.1H95.9677C95.8877 51.12 95.8477 52.88 95.8477 55.38H95.2177C95.0377 54.06 94.6377 52.96 94.0177 52.08C93.4177 51.18 92.5377 50.73 91.3777 50.73C90.7777 50.73 90.2777 50.9 89.8777 51.24C89.4977 51.58 89.3077 52.05 89.3077 52.65C89.3077 53.33 89.5377 53.92 89.9977 54.42C90.4577 54.9 91.1777 55.49 92.1577 56.19L93.0277 56.82C94.2477 57.74 95.1477 58.56 95.7277 59.28C96.3077 60 96.5977 60.9 96.5977 61.98C96.5977 62.86 96.3377 63.64 95.8177 64.32C95.3177 65 94.6377 65.52 93.7777 65.88C92.9177 66.24 91.9677 66.42 90.9277 66.42C89.8277 66.42 88.8877 66.21 88.1077 65.79C87.4677 65.47 87.0077 65.26 86.7277 65.16C86.5277 65.1 86.3477 65.17 86.1877 65.37C86.0477 65.55 85.9377 65.83 85.8577 66.21H85.2277C85.3077 65.07 85.3477 63.07 85.3477 60.21H85.9777C86.3777 63.89 87.7277 65.73 90.0277 65.73C90.6077 65.73 91.0977 65.56 91.4977 65.22C91.9177 64.86 92.1277 64.32 92.1277 63.6C92.1277 63.04 91.9977 62.54 91.7377 62.1C91.4977 61.66 91.1877 61.27 90.8077 60.93C90.4277 60.59 89.8577 60.12 89.0977 59.52C88.1977 58.8 87.5077 58.22 87.0277 57.78C86.5677 57.34 86.1677 56.82 85.8277 56.22C85.5077 55.62 85.3477 54.95 85.3477 54.21C85.3477 52.93 85.8477 51.92 86.8477 51.18C87.8477 50.44 89.0677 50.07 90.5077 50.07Z" fill="white"/>
<path d="M14.1 128.15C14.1 129.583 14.3667 130.583 14.9 131.15C15.4333 131.683 16.3667 131.95 17.7 131.95V133C14.1 132.867 11.8 132.8 10.8 132.8C9.7 132.8 7.3 132.85 3.6 132.95L2.2 133V131.95C3.76667 131.95 4.93333 131.65 5.7 131.05C6.5 130.45 6.9 129.383 6.9 127.85V115.65C6.9 114.05 6.75 112.883 6.45 112.15C6.18333 111.383 5.71667 110.883 5.05 110.65C4.38333 110.383 3.36667 110.25 2 110.25V109.15C4.9 109.083 7.28333 108.867 9.15 108.5C11.0167 108.1 12.6667 107.467 14.1 106.6V128.15ZM35.5406 106.45C38.174 106.45 40.524 107 42.5906 108.1C44.6573 109.2 46.2573 110.75 47.3906 112.75C48.5573 114.75 49.1406 117.05 49.1406 119.65C49.1406 122.317 48.5406 124.717 47.3406 126.85C46.174 128.983 44.5073 130.667 42.3406 131.9C40.2073 133.1 37.7573 133.7 34.9906 133.7C32.3906 133.7 30.0573 133.15 27.9906 132.05C25.924 130.95 24.3073 129.4 23.1406 127.4C21.974 125.4 21.3906 123.083 21.3906 120.45C21.3906 117.817 21.974 115.433 23.1406 113.3C24.3406 111.167 26.0073 109.5 28.1406 108.3C30.274 107.067 32.7406 106.45 35.5406 106.45ZM35.0906 107.35C33.8906 107.35 32.824 107.867 31.8906 108.9C30.9573 109.933 30.224 111.433 29.6906 113.4C29.1906 115.333 28.9406 117.633 28.9406 120.3C28.9406 124.533 29.5406 127.683 30.7406 129.75C31.974 131.783 33.5406 132.8 35.4406 132.8C36.6406 132.8 37.6906 132.283 38.5906 131.25C39.524 130.183 40.2573 128.683 40.7906 126.75C41.324 124.783 41.5906 122.467 41.5906 119.8C41.5906 115.567 40.974 112.433 39.7406 110.4C38.5406 108.367 36.9906 107.35 35.0906 107.35ZM67.7672 106.45C70.4005 106.45 72.7505 107 74.8172 108.1C76.8839 109.2 78.4839 110.75 79.6172 112.75C80.7839 114.75 81.3672 117.05 81.3672 119.65C81.3672 122.317 80.7672 124.717 79.5672 126.85C78.4005 128.983 76.7339 130.667 74.5672 131.9C72.4339 133.1 69.9839 133.7 67.2172 133.7C64.6172 133.7 62.2839 133.15 60.2172 132.05C58.1505 130.95 56.5339 129.4 55.3672 127.4C54.2005 125.4 53.6172 123.083 53.6172 120.45C53.6172 117.817 54.2005 115.433 55.3672 113.3C56.5672 111.167 58.2339 109.5 60.3672 108.3C62.5005 107.067 64.9672 106.45 67.7672 106.45ZM67.3172 107.35C66.1172 107.35 65.0505 107.867 64.1172 108.9C63.1839 109.933 62.4505 111.433 61.9172 113.4C61.4172 115.333 61.1672 117.633 61.1672 120.3C61.1672 124.533 61.7672 127.683 62.9672 129.75C64.2005 131.783 65.7672 132.8 67.6672 132.8C68.8672 132.8 69.9172 132.283 70.8172 131.25C71.7505 130.183 72.4839 128.683 73.0172 126.75C73.5505 124.783 73.8172 122.467 73.8172 119.8C73.8172 115.567 73.2005 112.433 71.9672 110.4C70.7672 108.367 69.2172 107.35 67.3172 107.35ZM128.814 92.45L99.5637 135.75L98.6137 135.1L127.864 91.8L128.814 92.45ZM105.064 94.95C107.497 94.95 109.447 95.6833 110.914 97.15C112.414 98.5833 113.164 100.567 113.164 103.1C113.164 104.767 112.814 106.233 112.114 107.5C111.414 108.767 110.447 109.75 109.214 110.45C107.98 111.15 106.597 111.5 105.064 111.5C102.63 111.5 100.664 110.783 99.1637 109.35C97.6637 107.883 96.9137 105.883 96.9137 103.35C96.9137 101.717 97.2637 100.267 97.9637 99C98.6637 97.7 99.6303 96.7 100.864 96C102.13 95.3 103.53 94.95 105.064 94.95ZM104.964 95.85C102.797 95.85 101.714 98.3333 101.714 103.3C101.714 105.7 102.014 107.517 102.614 108.75C103.214 109.983 104.064 110.6 105.164 110.6C107.297 110.6 108.364 108.133 108.364 103.2C108.364 100.767 108.064 98.9333 107.464 97.7C106.897 96.4667 106.064 95.85 104.964 95.85ZM121.864 117.15C124.297 117.15 126.247 117.883 127.714 119.35C129.214 120.783 129.964 122.767 129.964 125.3C129.964 126.967 129.614 128.433 128.914 129.7C128.214 130.967 127.247 131.95 126.014 132.65C124.78 133.35 123.397 133.7 121.864 133.7C119.43 133.7 117.464 132.983 115.964 131.55C114.464 130.083 113.714 128.083 113.714 125.55C113.714 123.917 114.064 122.467 114.764 121.2C115.464 119.9 116.43 118.9 117.664 118.2C118.93 117.5 120.33 117.15 121.864 117.15ZM121.764 118.05C119.597 118.05 118.514 120.533 118.514 125.5C118.514 127.9 118.814 129.717 119.414 130.95C120.014 132.183 120.864 132.8 121.964 132.8C124.097 132.8 125.164 130.333 125.164 125.4C125.164 122.967 124.864 121.133 124.264 119.9C123.697 118.667 122.864 118.05 121.764 118.05Z" fill="#676CDB"/>
</svg>
