<svg width="194" height="106" viewBox="0 0 194 106" fill="none" xmlns="http://www.w3.org/2000/svg">
<path d="M8.04 21.42V26.64C8.04 27.44 8.12 28.03 8.28 28.41C8.46 28.77 8.76 29.01 9.18 29.13C9.62 29.25 10.31 29.32 11.25 29.34V30C8.79 29.94 6.96 29.91 5.76 29.91C4.76 29.91 3.5 29.93 1.98 29.97L1.02 30V29.4C1.68 29.36 2.16 29.28 2.46 29.16C2.78 29.04 2.99 28.81 3.09 28.47C3.21 28.13 3.27 27.58 3.27 26.82V11.94C3.27 11.18 3.21 10.63 3.09 10.29C2.99 9.95 2.78 9.72 2.46 9.6C2.16 9.48 1.68 9.4 1.02 9.36V8.76C2.04 8.82 3.56 8.85 5.58 8.85L8.91 8.82C9.31 8.8 9.77 8.79 10.29 8.79C12.99 8.79 15.05 9.33 16.47 10.41C17.89 11.47 18.6 12.9 18.6 14.7C18.6 15.8 18.32 16.86 17.76 17.88C17.2 18.88 16.25 19.72 14.91 20.4C13.59 21.08 11.83 21.42 9.63 21.42H8.04ZM9.9 9.36C9.36 9.36 8.96 9.43 8.7 9.57C8.46 9.71 8.29 9.96 8.19 10.32C8.09 10.68 8.04 11.22 8.04 11.94V20.82H9.33C10.95 20.82 12.07 20.3 12.69 19.26C13.31 18.22 13.62 16.81 13.62 15.03C13.62 13.09 13.33 11.66 12.75 10.74C12.19 9.82 11.24 9.36 9.9 9.36ZM30.2588 14.07C31.1588 14.07 31.8388 14.34 32.2988 14.88C32.7588 15.42 32.9888 16.07 32.9888 16.83C32.9888 17.57 32.7688 18.18 32.3288 18.66C31.9088 19.12 31.3488 19.35 30.6488 19.35C29.9688 19.35 29.4288 19.18 29.0288 18.84C28.6288 18.48 28.4288 18.01 28.4288 17.43C28.4288 16.47 28.8688 15.69 29.7488 15.09C29.6688 15.07 29.5488 15.06 29.3888 15.06C29.1888 15.06 29.0288 15.08 28.9088 15.12C28.1488 15.24 27.4988 15.7 26.9588 16.5C26.4388 17.3 26.1788 18.12 26.1788 18.96V26.91C26.1788 27.83 26.3988 28.47 26.8388 28.83C27.2988 29.19 28.0188 29.37 28.9988 29.37V30C28.7188 30 28.4888 29.99 28.3088 29.97C26.2688 29.91 24.9088 29.88 24.2288 29.88C23.6888 29.88 22.4588 29.91 20.5388 29.97C20.3788 29.99 20.1788 30 19.9388 30V29.37C20.6588 29.37 21.1588 29.22 21.4388 28.92C21.7188 28.6 21.8588 28.03 21.8588 27.21V17.76C21.8588 16.84 21.7188 16.17 21.4388 15.75C21.1588 15.33 20.6588 15.12 19.9388 15.12V14.49C20.5788 14.55 21.1988 14.58 21.7988 14.58C23.5788 14.58 25.0388 14.44 26.1788 14.16V16.95C26.5588 16.09 27.1088 15.4 27.8288 14.88C28.5488 14.34 29.3588 14.07 30.2588 14.07ZM41.2725 14.07C43.5725 14.07 45.3725 14.73 46.6725 16.05C47.9725 17.35 48.6225 19.42 48.6225 22.26C48.6225 25.1 47.9725 27.17 46.6725 28.47C45.3725 29.77 43.5725 30.42 41.2725 30.42C38.9925 30.42 37.1925 29.77 35.8725 28.47C34.5725 27.17 33.9225 25.1 33.9225 22.26C33.9225 19.42 34.5725 17.35 35.8725 16.05C37.1925 14.73 38.9925 14.07 41.2725 14.07ZM41.2725 14.67C40.4125 14.67 39.7225 15.3 39.2025 16.56C38.7025 17.8 38.4525 19.7 38.4525 22.26C38.4525 24.82 38.7025 26.72 39.2025 27.96C39.7225 29.2 40.4125 29.82 41.2725 29.82C42.1525 29.82 42.8425 29.21 43.3425 27.99C43.8425 26.75 44.0925 24.84 44.0925 22.26C44.0925 19.68 43.8325 17.77 43.3125 16.53C42.8125 15.29 42.1325 14.67 41.2725 14.67ZM49.0854 35.1C50.0854 35.06 50.8654 34.66 51.4254 33.9C52.0054 33.14 52.2954 32.02 52.2954 30.54V17.76C52.2954 16.84 52.1454 16.17 51.8454 15.75C51.5654 15.33 51.0754 15.12 50.3754 15.12V14.49C51.0154 14.55 51.6354 14.58 52.2354 14.58C53.9754 14.58 55.4354 14.44 56.6154 14.16V27.18C56.6154 28.86 56.4454 30.24 56.1054 31.32C55.7854 32.4 55.2354 33.3 54.4554 34.02C53.2754 35.1 51.4854 35.64 49.0854 35.64V35.1ZM54.1254 6.75C54.9654 6.75 55.6254 6.96 56.1054 7.38C56.6054 7.78 56.8554 8.34 56.8554 9.06C56.8554 9.78 56.6054 10.35 56.1054 10.77C55.6254 11.17 54.9654 11.37 54.1254 11.37C53.2854 11.37 52.6154 11.17 52.1154 10.77C51.6354 10.35 51.3954 9.78 51.3954 9.06C51.3954 8.34 51.6354 7.78 52.1154 7.38C52.6154 6.96 53.2854 6.75 54.1254 6.75ZM68.2216 27.96C69.8616 27.96 71.1816 27.16 72.1816 25.56L72.7216 25.74C72.3216 27.04 71.6016 28.15 70.5616 29.07C69.5416 29.97 68.2616 30.42 66.7216 30.42C64.6016 30.42 62.9116 29.75 61.6516 28.41C60.4116 27.05 59.7916 25.05 59.7916 22.41C59.7916 19.71 60.4616 17.65 61.8016 16.23C63.1416 14.79 64.9216 14.07 67.1416 14.07C70.9016 14.07 72.7816 16.29 72.7816 20.73H64.3516C64.3316 21.03 64.3216 21.5 64.3216 22.14C64.3216 23.46 64.5016 24.56 64.8616 25.44C65.2416 26.32 65.7216 26.96 66.3016 27.36C66.9016 27.76 67.5416 27.96 68.2216 27.96ZM66.9616 14.7C66.2416 14.7 65.6416 15.15 65.1616 16.05C64.7016 16.93 64.4116 18.3 64.2916 20.16H69.0016C69.0416 18.58 68.8816 17.28 68.5216 16.26C68.1816 15.22 67.6616 14.7 66.9616 14.7ZM82.3188 14.07C83.0588 14.07 83.7588 14.15 84.4188 14.31C85.0788 14.47 85.6288 14.69 86.0688 14.97C86.5888 15.29 86.9888 15.7 87.2688 16.2C87.5688 16.68 87.7188 17.21 87.7188 17.79C87.7188 18.49 87.4988 19.07 87.0588 19.53C86.6188 19.97 86.0488 20.19 85.3488 20.19C84.6488 20.19 84.0888 19.99 83.6688 19.59C83.2488 19.19 83.0388 18.65 83.0388 17.97C83.0388 17.37 83.2288 16.85 83.6088 16.41C83.9888 15.97 84.4588 15.67 85.0188 15.51C84.8588 15.29 84.6088 15.12 84.2688 15C83.9488 14.86 83.5988 14.79 83.2188 14.79C82.0188 14.79 81.0788 15.45 80.3988 16.77C79.7388 18.07 79.4088 19.78 79.4088 21.9C79.4088 24.04 79.7888 25.58 80.5488 26.52C81.3088 27.46 82.2588 27.93 83.3988 27.93C84.0788 27.93 84.7588 27.75 85.4388 27.39C86.1388 27.03 86.7688 26.4 87.3288 25.5L87.8388 25.68C87.4388 26.98 86.7388 28.1 85.7388 29.04C84.7388 29.96 83.4488 30.42 81.8688 30.42C79.8088 30.42 78.1288 29.74 76.8288 28.38C75.5288 27.02 74.8788 25 74.8788 22.32C74.8788 20.56 75.1988 19.06 75.8388 17.82C76.4788 16.58 77.3588 15.65 78.4788 15.03C79.5988 14.39 80.8788 14.07 82.3188 14.07ZM95.4916 14.49H99.0316V15.09H95.4916V27.21C95.4916 27.81 95.5916 28.24 95.7916 28.5C96.0116 28.74 96.3516 28.86 96.8116 28.86C97.6716 28.86 98.3516 28.26 98.8516 27.06L99.3616 27.33C98.6016 29.39 97.2316 30.42 95.2516 30.42C93.9316 30.42 92.9316 30.08 92.2516 29.4C91.8316 28.98 91.5416 28.46 91.3816 27.84C91.2416 27.2 91.1716 26.33 91.1716 25.23V15.09H88.6516V14.49H91.1716V10.53C92.8316 10.53 94.2716 10.21 95.4916 9.57V14.49ZM105.889 14.07C106.649 14.07 107.349 14.17 107.989 14.37C108.629 14.55 109.119 14.76 109.459 15C109.659 15.14 109.839 15.21 109.999 15.21C110.179 15.21 110.329 15.12 110.449 14.94C110.589 14.74 110.679 14.46 110.719 14.1H111.349C111.269 15.12 111.229 16.88 111.229 19.38H110.599C110.419 18.06 110.019 16.96 109.399 16.08C108.799 15.18 107.919 14.73 106.759 14.73C106.159 14.73 105.659 14.9 105.259 15.24C104.879 15.58 104.689 16.05 104.689 16.65C104.689 17.33 104.919 17.92 105.379 18.42C105.839 18.9 106.559 19.49 107.539 20.19L108.409 20.82C109.629 21.74 110.529 22.56 111.109 23.28C111.689 24 111.979 24.9 111.979 25.98C111.979 26.86 111.719 27.64 111.199 28.32C110.699 29 110.019 29.52 109.159 29.88C108.299 30.24 107.349 30.42 106.309 30.42C105.209 30.42 104.269 30.21 103.489 29.79C102.849 29.47 102.389 29.26 102.109 29.16C101.909 29.1 101.729 29.17 101.569 29.37C101.429 29.55 101.319 29.83 101.239 30.21H100.609C100.689 29.07 100.729 27.07 100.729 24.21H101.359C101.759 27.89 103.109 29.73 105.409 29.73C105.989 29.73 106.479 29.56 106.879 29.22C107.299 28.86 107.509 28.32 107.509 27.6C107.509 27.04 107.379 26.54 107.119 26.1C106.879 25.66 106.569 25.27 106.189 24.93C105.809 24.59 105.239 24.12 104.479 23.52C103.579 22.8 102.889 22.22 102.409 21.78C101.949 21.34 101.549 20.82 101.209 20.22C100.889 19.62 100.729 18.95 100.729 18.21C100.729 16.93 101.229 15.92 102.229 15.18C103.229 14.44 104.449 14.07 105.889 14.07ZM130.378 8.76C134.278 8.76 137.198 9.65 139.138 11.43C141.078 13.19 142.048 15.76 142.048 19.14C142.048 21.32 141.568 23.23 140.608 24.87C139.668 26.49 138.298 27.75 136.498 28.65C134.718 29.55 132.588 30 130.108 30L128.248 29.97C127.088 29.93 126.248 29.91 125.728 29.91C123.668 29.91 122.128 29.94 121.108 30V29.4C121.768 29.36 122.248 29.28 122.548 29.16C122.868 29.04 123.078 28.81 123.178 28.47C123.298 28.13 123.358 27.58 123.358 26.82V11.94C123.358 11.18 123.298 10.63 123.178 10.29C123.078 9.95 122.868 9.72 122.548 9.6C122.248 9.48 121.768 9.4 121.108 9.36V8.76C121.948 8.82 123.158 8.85 124.738 8.85H125.668L126.868 8.82C128.508 8.78 129.678 8.76 130.378 8.76ZM130.348 9.3C129.728 9.3 129.258 9.37 128.938 9.51C128.638 9.65 128.428 9.9 128.308 10.26C128.188 10.62 128.128 11.16 128.128 11.88V26.88C128.128 27.6 128.188 28.14 128.308 28.5C128.428 28.86 128.638 29.11 128.938 29.25C129.258 29.39 129.738 29.46 130.378 29.46C132.798 29.46 134.518 28.62 135.538 26.94C136.558 25.24 137.068 22.68 137.068 19.26C137.068 15.84 136.538 13.33 135.478 11.73C134.438 10.11 132.728 9.3 130.348 9.3ZM151.839 14.07C154.139 14.07 155.939 14.73 157.239 16.05C158.539 17.35 159.189 19.42 159.189 22.26C159.189 25.1 158.539 27.17 157.239 28.47C155.939 29.77 154.139 30.42 151.839 30.42C149.559 30.42 147.759 29.77 146.439 28.47C145.139 27.17 144.489 25.1 144.489 22.26C144.489 19.42 145.139 17.35 146.439 16.05C147.759 14.73 149.559 14.07 151.839 14.07ZM151.839 14.67C150.979 14.67 150.289 15.3 149.769 16.56C149.269 17.8 149.019 19.7 149.019 22.26C149.019 24.82 149.269 26.72 149.769 27.96C150.289 29.2 150.979 29.82 151.839 29.82C152.719 29.82 153.409 29.21 153.909 27.99C154.409 26.75 154.659 24.84 154.659 22.26C154.659 19.68 154.399 17.77 153.879 16.53C153.379 15.29 152.699 14.67 151.839 14.67ZM172.222 14.07C173.742 14.07 174.842 14.46 175.522 15.24C175.862 15.62 176.102 16.11 176.242 16.71C176.382 17.31 176.452 18.12 176.452 19.14V27.21C176.452 28.03 176.592 28.6 176.872 28.92C177.172 29.22 177.672 29.37 178.372 29.37V30C176.372 29.92 175.052 29.88 174.412 29.88C173.812 29.88 172.512 29.92 170.512 30V29.37C171.112 29.37 171.532 29.22 171.772 28.92C172.012 28.6 172.132 28.03 172.132 27.21V17.88C172.132 17.06 171.992 16.44 171.712 16.02C171.452 15.6 170.972 15.39 170.272 15.39C169.452 15.39 168.752 15.73 168.172 16.41C167.592 17.07 167.302 17.89 167.302 18.87V27.21C167.302 28.03 167.422 28.6 167.662 28.92C167.902 29.22 168.322 29.37 168.922 29.37V30C167.082 29.92 165.842 29.88 165.202 29.88C164.602 29.88 163.222 29.92 161.062 30V29.37C161.782 29.37 162.282 29.22 162.562 28.92C162.842 28.6 162.982 28.03 162.982 27.21V17.76C162.982 16.84 162.842 16.17 162.562 15.75C162.282 15.33 161.782 15.12 161.062 15.12V14.49C161.702 14.55 162.322 14.58 162.922 14.58C164.702 14.58 166.162 14.44 167.302 14.16V16.86C168.202 15 169.842 14.07 172.222 14.07ZM188.31 27.96C189.95 27.96 191.27 27.16 192.27 25.56L192.81 25.74C192.41 27.04 191.69 28.15 190.65 29.07C189.63 29.97 188.35 30.42 186.81 30.42C184.69 30.42 183 29.75 181.74 28.41C180.5 27.05 179.88 25.05 179.88 22.41C179.88 19.71 180.55 17.65 181.89 16.23C183.23 14.79 185.01 14.07 187.23 14.07C190.99 14.07 192.87 16.29 192.87 20.73H184.44C184.42 21.03 184.41 21.5 184.41 22.14C184.41 23.46 184.59 24.56 184.95 25.44C185.33 26.32 185.81 26.96 186.39 27.36C186.99 27.76 187.63 27.96 188.31 27.96ZM187.05 14.7C186.33 14.7 185.73 15.15 185.25 16.05C184.79 16.93 184.5 18.3 184.38 20.16H189.09C189.13 18.58 188.97 17.28 188.61 16.26C188.27 15.22 187.75 14.7 187.05 14.7Z" fill="white"/>
<path d="M22.7 72.25C22.3 73.1833 21.4833 74.7833 20.25 77.05C18.9167 79.45 17.8333 81.55 17 83.35C16.1667 85.15 15.4333 87.2 14.8 89.5C14.2 91.8 13.9 94.2 13.9 96.7L14 98.4C14.1 99.2667 14.15 100.05 14.15 100.75C14.15 101.783 13.8333 102.65 13.2 103.35C12.5667 104.05 11.6667 104.4 10.5 104.4C9.3 104.4 8.38333 104 7.75 103.2C7.15 102.4 6.85 101.333 6.85 100C6.85 97.9333 7.3 95.8333 8.2 93.7C9.1 91.5333 10.1667 89.5333 11.4 87.7C12.6667 85.8333 14.3 83.5833 16.3 80.95C16.7 80.3833 17.1333 79.8 17.6 79.2C18.0667 78.6 18.55 77.95 19.05 77.25H5.75C4.85 77.25 4.16667 77.3167 3.7 77.45C3.26667 77.5833 2.96667 77.8 2.8 78.1C2.63333 78.4 2.5 78.8667 2.4 79.5H1.35C1.35 75.5 1.28333 72.65 1.15 70.95C1.88333 71.1167 4.36667 71.2 8.6 71.2H22.7V72.25ZM44.9672 95.45C44.5672 95.35 42.9005 95.2667 39.9672 95.2V104.05H34.1672V95.2H20.5172V94.15L39.1672 70.45H39.9672V90.05H40.3672C41.2672 90.05 41.9339 89.9833 42.3672 89.85C42.8339 89.7167 43.1505 89.5 43.3172 89.2C43.4839 88.9 43.6172 88.4333 43.7172 87.8H44.7672C44.7672 91.3333 44.8339 93.8833 44.9672 95.45ZM34.1672 90.05V78.4L25.1172 90.05H34.1672ZM58.0031 70.45C60.5031 70.45 62.5531 70.9667 64.1531 72C65.7531 73.0333 66.5531 74.4333 66.5531 76.2C66.5531 78.1 65.6365 79.8 63.8031 81.3C61.9698 82.8 59.5031 83.85 56.4031 84.45C59.9031 84.3167 62.7698 84.9333 65.0031 86.3C67.2365 87.6333 68.3531 89.55 68.3531 92.05C68.3531 94.4833 67.3031 96.65 65.2031 98.55C63.1031 100.483 60.4031 101.967 57.1031 103C53.8365 104.033 50.5198 104.55 47.1531 104.55V103.55C49.3531 103.483 51.5031 102.983 53.6031 102.05C55.7365 101.15 57.4865 99.85 58.8531 98.15C60.2198 96.45 60.9031 94.4333 60.9031 92.1C60.9031 90.1333 60.4198 88.5167 59.4531 87.25C58.5198 85.9833 57.2531 85.2833 55.6531 85.15C55.1865 85.3833 54.7198 85.5833 54.2531 85.75C53.8198 85.8833 53.4365 85.95 53.1031 85.95C52.4698 85.95 52.1531 85.7167 52.1531 85.25C52.1531 84.8833 52.3031 84.6167 52.6031 84.45C52.9031 84.25 53.2865 84.15 53.7531 84.15C53.9531 84.15 54.2198 84.1833 54.5531 84.25C54.9198 84.2833 55.2365 84.3167 55.5031 84.35C58.0698 82.55 59.3531 80.3167 59.3531 77.65C59.3531 76.15 58.9698 75.05 58.2031 74.35C57.4365 73.6167 56.3365 73.25 54.9031 73.25C53.5698 73.25 52.3365 73.5833 51.2031 74.25C50.1031 74.9167 49.1698 75.8833 48.4031 77.15L47.5031 76.7C48.5365 74.8 49.8698 73.2833 51.5031 72.15C53.1698 71.0167 55.3365 70.45 58.0031 70.45Z" fill="#676CDB"/>
</svg>
